<?xml version="1.0" encoding="utf-8"?><svg xmlns="http://www.w3.org/2000/svg" xmlns:xlink="http://www.w3.org/1999/xlink"><symbol viewBox="0 0 16 16" id="angle-left" xmlns="http://www.w3.org/2000/svg"><g clip-path="url(#aclip0)"><path d="M3.862 8.44l7.4 7.38a.62.62 0 00.876-.88L5.178 8l6.96-6.94a.62.62 0 10-.876-.879l-7.4 7.38a.62.62 0 000 .878z"/></g><defs><clipPath id="aclip0"><path transform="rotate(-180 16 16)" d="M16 16h16v16H16z"/></clipPath></defs></symbol><symbol viewBox="0 0 16 16" id="angle-right" xmlns="http://www.w3.org/2000/svg"><g clip-path="url(#bclip0)"><path d="M12.139 7.56L4.738.18a.62.62 0 00-.876.88L10.822 8l-6.96 6.94a.62.62 0 10.876.879l7.4-7.38a.62.62 0 000-.878z"/></g><defs><clipPath id="bclip0"><path d="M0 0h16v16H0z"/></clipPath></defs></symbol><symbol viewBox="0 0 86 86" id="big-phone-used-m" xmlns="http://www.w3.org/2000/svg"><path d="M6.9 56.45a48.83 48.83 0 0015.335-2.443c2.4-.82 5.352-.068 6.817 1.437l9.67 7.3c11.214-5.987 18.121-12.892 24.026-24.022l-7.085-9.418c-1.84-1.838-2.5-4.524-1.71-7.043A48.9 48.9 0 0056.405 6.9a6.909 6.909 0 016.9-6.9H79.1C82.904 0 86 3.096 86 6.9 86 50.518 50.517 86 6.9 86A6.909 6.909 0 010 79.1V63.35c0-3.805 3.096-6.9 6.9-6.9z"/></symbol><symbol viewBox="0 0 344.96 344.96" id="check" xmlns="http://www.w3.org/2000/svg"><g data-name="Слой 2"><path d="M321.85 86.24l-40-23.11-23.1-40H212.5L172.48 0l-40 23.11H86.24l-23.11 40-40 23.1v46.21L0 172.48l23.11 40v46.21l40 23.11 23.11 40h46.21l40 23.1 40-23.11h46.21l23.11-40 40-23.11V212.5l23.11-40-23.11-40V86.24zM156.91 243.07a16.79 16.79 0 01-23.34 0l-50.45-50.44a16.19 16.19 0 010-22.89l13.35-13.35a16.19 16.19 0 0122.89 0l25.87 25.87 80.34-80.35a16.19 16.19 0 0122.89 0l13.35 13.35a16.19 16.19 0 010 22.89z" data-name="Capa 1"/></g></symbol><symbol viewBox="0 0 20 20" id="check-calendar" xmlns="http://www.w3.org/2000/svg"><path d="M17 2h-1V0h-2v2H6V0H4v2H3a1.99 1.99 0 00-1.99 2L1 18a2 2 0 002 2h14a2 2 0 002-2V4a2 2 0 00-2-2zm0 16H3V7h14v11z"/><path d="M14.53 10.06L13.47 9l-4.88 4.88-2.12-2.12-1.06 1.06L8.59 16l5.94-5.94z"/></symbol><symbol viewBox="0 0 10 10" id="check-classic" xmlns="http://www.w3.org/2000/svg"><g clip-path="url(#fclip0)"><path d="M3.83 8.736a.51.51 0 01-.723 0L.224 5.853a.766.766 0 010-1.083l.361-.361c.3-.3.784-.3 1.083 0l1.8 1.8 4.864-4.864c.299-.3.784-.3 1.083 0l.36.361c.3.3.3.784 0 1.083L3.83 8.736z"/></g><defs><clipPath id="fclip0"><path d="M0 0h10v10H0z"/></clipPath></defs></symbol><symbol viewBox="0 0 12 12" id="cross" xmlns="http://www.w3.org/2000/svg"><path d="M6.663 6l5.2-5.199A.469.469 0 1011.2.138L6 5.338.8.138a.469.469 0 10-.663.663l5.2 5.2-5.2 5.2a.469.469 0 00.663.662l5.2-5.2 5.2 5.2a.467.467 0 00.663 0 .469.469 0 000-.662L6.663 6z"/></symbol><symbol viewBox="0 0 20 20" id="download-cloud" xmlns="http://www.w3.org/2000/svg"><path d="M19.13 10.85a3.942 3.942 0 00-2.224-1.412c.285-.43.427-.91.427-1.438a2.57 2.57 0 00-.781-1.885 2.57 2.57 0 00-1.886-.781c-.66 0-1.236.215-1.729.646a5.223 5.223 0 00-1.963-2.407A5.219 5.219 0 008 2.667c-1.472 0-2.73.521-3.771 1.563C3.187 5.27 2.667 6.528 2.667 8c0 .09.007.24.02.448A4.56 4.56 0 00.73 10.167a4.567 4.567 0 00-.729 2.5c0 1.285.457 2.383 1.37 3.297.913.913 2.012 1.37 3.297 1.37H16a3.854 3.854 0 002.828-1.172A3.853 3.853 0 0020 13.334c0-.931-.29-1.759-.87-2.485zm-5.9.4l-3.657 3.657a.325.325 0 01-.24.093.325.325 0 01-.24-.093L5.428 11.24a.324.324 0 01-.094-.24.32.32 0 01.1-.234.32.32 0 01.234-.099H8V7a.32.32 0 01.099-.234.32.32 0 01.234-.099h2a.32.32 0 01.235.099.32.32 0 01.099.234v3.667H13c.097 0 .177.031.24.094a.324.324 0 01.093.24.39.39 0 01-.104.25z"/></symbol><symbol viewBox="0 0 18 18" id="filter-svg" xmlns="http://www.w3.org/2000/svg"><path d="M17.25 14.25h-1.997a2.62 2.62 0 00-2.503-1.875 2.62 2.62 0 00-2.503 1.875H.75a.75.75 0 000 1.5h9.497a2.62 2.62 0 002.503 1.875 2.62 2.62 0 002.503-1.875h1.997a.75.75 0 100-1.5zm-4.5 1.875c-.62 0-1.125-.505-1.125-1.125s.505-1.125 1.125-1.125 1.125.505 1.125 1.125-.505 1.125-1.125 1.125zm4.5-13.875h-1.997A2.62 2.62 0 0012.75.375a2.62 2.62 0 00-2.503 1.875H.75a.75.75 0 000 1.5h9.497a2.62 2.62 0 002.503 1.875 2.62 2.62 0 002.503-1.875h1.997a.75.75 0 100-1.5zm-4.5 1.875c-.62 0-1.125-.505-1.125-1.125s.505-1.125 1.125-1.125S13.875 2.38 13.875 3s-.505 1.125-1.125 1.125zm4.5 4.125H7.753A2.62 2.62 0 005.25 6.375 2.62 2.62 0 002.747 8.25H.75a.75.75 0 000 1.5h1.997a2.62 2.62 0 002.503 1.875A2.62 2.62 0 007.753 9.75h9.497a.75.75 0 100-1.5zm-12 1.875c-.62 0-1.125-.505-1.125-1.125S4.63 7.875 5.25 7.875 6.375 8.38 6.375 9s-.505 1.125-1.125 1.125z"/></symbol><symbol viewBox="0 0 24 24" id="phone-header" xmlns="http://www.w3.org/2000/svg"><path d="M12.8 6.4a.8.8 0 000 1.6c1.765 0 3.2 1.435 3.2 3.2a.8.8 0 001.6 0c0-2.646-2.154-4.8-4.8-4.8z"/><path d="M12.8 3.2a.8.8 0 000 1.6c3.53 0 6.4 2.87 6.4 6.4a.8.8 0 001.6 0c0-4.411-3.589-8-8-8z"/><path d="M12.8 0a.8.8 0 000 1.6c5.294 0 9.6 4.306 9.6 9.6a.8.8 0 001.6 0C24 5.024 18.974 0 12.8 0zM21.6 17.6a14.85 14.85 0 01-6.576-1.502.785.785 0 00-.613-.037.807.807 0 00-.459.408l-1.258 2.603a20.122 20.122 0 01-7.763-7.763l2.602-1.261a.801.801 0 00.37-1.072A14.85 14.85 0 016.4 2.4a.8.8 0 00-.8-.8H.8a.8.8 0 00-.8.8C0 14.31 9.69 24 21.6 24a.8.8 0 00.8-.8v-4.8a.8.8 0 00-.8-.8z"/></symbol><symbol viewBox="0 0 27 27" id="play-icon" xmlns="http://www.w3.org/2000/svg"><path d="M13.5 0C6.056 0 0 6.056 0 13.5S6.056 27 13.5 27 27 20.944 27 13.5 20.944 0 13.5 0zm5.367 13.973l-7.875 5.062a.56.56 0 01-.574.021.562.562 0 01-.293-.494V8.438a.562.562 0 01.867-.472l7.875 5.062a.564.564 0 010 .946z"/></symbol><symbol viewBox="0 0 18 16" id="slider-next" xmlns="http://www.w3.org/2000/svg"><path d="M.75 8.75h14.962l-5.73 5.457a.75.75 0 101.036 1.086l6.543-6.232a1.5 1.5 0 00-.013-2.134l-6.53-6.22a.747.747 0 00-1.061.026.75.75 0 00.025 1.06l5.754 5.457H.75a.75.75 0 000 1.5z"/></symbol><symbol viewBox="0 0 18 16" id="slider-prev" xmlns="http://www.w3.org/2000/svg"><path d="M17.25 7.25H2.288l5.73-5.457A.75.75 0 106.981.707L.44 6.939a1.5 1.5 0 00.013 2.134l6.53 6.22a.747.747 0 001.061-.026.75.75 0 00-.025-1.06L2.264 8.75H17.25a.75.75 0 000-1.5z"/></symbol><symbol viewBox="0 0 17 8" id="small-blue-arrow-right" xmlns="http://www.w3.org/2000/svg"><path d="M16.298 4.354a.5.5 0 000-.708L13.116.464a.5.5 0 10-.707.708L15.238 4l-2.829 2.828a.5.5 0 10.707.708l3.182-3.182zM.924 4.5h15.02v-1H.925v1z"/></symbol><symbol viewBox="0 0 21 20" id="small-blue-bad" xmlns="http://www.w3.org/2000/svg"><g clip-path="url(#oclip0)"><path d="M2.138 7.917h2.086a.418.418 0 01-.405-.518l.26-1.036a1.25 1.25 0 011.214-.946H7.98c.69 0 1.252.56 1.252 1.25V7.5c0 .23-.187.417-.417.417h2.503A.417.417 0 0110.9 7.5v-.833c0-.69.562-1.25 1.252-1.25h2.686c.575 0 1.075.389 1.214.946l.26 1.036a.414.414 0 01-.405.518h2.086c.23 0 .418-.187.418-.417V5a2.088 2.088 0 00-2.087-2.083H3.807c-1.15 0-2.086.935-2.086 2.083v2.5c0 .23.187.417.417.417zm15.855.833H2.138c-1.15 0-2.086.935-2.086 2.083v5.834a.417.417 0 00.834 0v-1.25h18.36v1.25a.417.417 0 00.834 0v-5.834a2.088 2.088 0 00-2.087-2.083zm1.252 5.833H.886v-.833h18.36v.833z"/></g><defs><clipPath id="oclip0"><path d="M.052 0H20.08v20H.052z"/></clipPath></defs></symbol><symbol viewBox="0 0 11 14" id="small-blue-location" xmlns="http://www.w3.org/2000/svg"><path d="M5.796 0A5.08 5.08 0 00.72 5.07c0 3.47 4.543 8.563 4.737 8.778a.458.458 0 00.68 0c.194-.215 4.737-5.308 4.737-8.778A5.08 5.08 0 005.796 0zm0 7.621a2.556 2.556 0 01-2.554-2.55 2.556 2.556 0 015.109 0 2.556 2.556 0 01-2.555 2.55z"/></symbol><symbol viewBox="0 0 21 20" id="small-blue-shower" xmlns="http://www.w3.org/2000/svg"><path d="M7.449 3.34c.256-.187.248-.172 2.047-1.188l.01-.006A5.096 5.096 0 00.262 5.092v14.706c0 .109.089.196.197.196H2.42a.196.196 0 00.197-.196V5.092a2.74 2.74 0 012.757-2.735c.814.006 1.565.38 2.075.984zm3.889 10.446a.588.588 0 00.484-.677l-.091-.544a.589.589 0 00-1.161.193l.09.545a.59.59 0 00.678.483zm2.986-1.633a.587.587 0 00.225-.8l-.254-.454a.589.589 0 00-1.027.576l.254.453a.59.59 0 00.802.225zm2.951-1.695a.587.587 0 00-.06-.829l-.418-.361a.59.59 0 00-.77.889l.418.361a.59.59 0 00.83-.06zm-5.292 5.596a.589.589 0 00-1.165.17l.082.564a.589.589 0 001.165-.17l-.082-.564zm2.584-1.604a.59.59 0 00-1.091.44l.201.498a.589.589 0 001.092-.44l-.202-.498zm2.547-1.599a.59.59 0 00-.945.701l.32.431a.59.59 0 00.946-.7l-.32-.432zm2.963-1.206l-.44-.364a.59.59 0 00-.751.905l.44.364a.59.59 0 00.751-.905z"/><path d="M7.553 8.274l6.554-3.702-.187-.331a2.822 2.822 0 00-3.845-1.066c-1.77 1-1.798 1-2.044 1.202a2.815 2.815 0 00-.666 3.566l.188.331zm8.904-2.392l-.26-.459a.594.594 0 00-.808-.224L7.433 9.693a.592.592 0 00-.225.806l.26.46a.799.799 0 001.088.3l7.599-4.291a.796.796 0 00.302-1.086z"/></symbol><symbol viewBox="0 0 22 22" id="small-white-clock" xmlns="http://www.w3.org/2000/svg"><path d="M11 0C4.934 0 0 4.934 0 11s4.934 11 11 11 11-4.934 11-11S17.066 0 11 0zm5.231 16.69a.914.914 0 01-1.296 0l-4.583-4.584a.913.913 0 01-.269-.648V5.5a.916.916 0 111.834 0v5.579l4.314 4.315a.916.916 0 010 1.296z"/></symbol><symbol viewBox="0 0 31 30" id="small-white-umbrella" xmlns="http://www.w3.org/2000/svg"><g clip-path="url(#sclip0)"><path d="M29.205 28.037H21.7a4.243 4.243 0 00-3.24-3.793v-9.575c0-1.078.877-1.955 1.955-1.955s1.955.877 1.955 1.955a.977.977 0 001.954 0c0-1.078.877-1.955 1.955-1.955s1.922.859 1.922 1.955a.977.977 0 101.955 0C30.156 7.88 24.919 2.489 18.46 2V.986a.977.977 0 00-1.955 0V2c-6.568.5-11.76 5.99-11.76 12.669a.977.977 0 101.954 0c0-1.078.892-1.955 1.988-1.955 1.078 0 1.954.877 1.954 1.955a.977.977 0 101.955 0 1.957 1.957 0 013.916 0v9.572a4.25 4.25 0 00-3.255 3.796h-1.912L8.424 25.1l2.916-2.933h1.548c.54 0 .978-.437.978-.977s-.438-.97-.978-.97H1.16a.972.972 0 00-.977.97c0 .54.437.977.977.977h1.59L5.666 25.1l-2.921 2.936H1.188a.977.977 0 000 1.954h28.017a.977.977 0 000-1.954zM27.547 10.97a3.886 3.886 0 00-3.442.45c-.308-2.252-.993-4.66-2.206-6.547a10.798 10.798 0 015.648 6.098zm-9.088-6.81c2.107 1.042 3.241 4.627 3.628 6.976a3.887 3.887 0 00-1.673-.378c-.712 0-1.38.192-1.955.526V4.161zm-7.6 7.26a3.886 3.886 0 00-2.173-.662c-.47 0-.92.082-1.338.232a10.829 10.829 0 015.727-6.134c-1.221 1.893-1.908 4.313-2.217 6.564zm5.652-.136a3.909 3.909 0 00-3.635-.149c.387-2.345 1.53-5.933 3.635-6.975v7.124zM5.506 22.168h3.077l-1.538 1.547-1.539-1.547zm-.004 5.869l1.543-1.55 1.542 1.55H5.502zm9.718 0a2.284 2.284 0 012.257-1.955h.005a2.284 2.284 0 012.252 1.955H15.22z"/></g><defs><clipPath id="sclip0"><path d="M.183 0h30v30h-30z"/></clipPath></defs></symbol><symbol viewBox="0 0 31 30" id="small-white-window" xmlns="http://www.w3.org/2000/svg"><g clip-path="url(#tclip0)"><path d="M13.884 10.747H7.195v5.27h6.69v-5.27zM7.306 8.315h6.578V1.82a7.925 7.925 0 00-6.578 6.495zm9.011-6.495v6.495h6.58a7.925 7.925 0 00-6.58-6.495zm6.69 8.927h-6.69v5.27h6.69v-5.27zm5.877 7.703H1.317a1.216 1.216 0 000 2.432h.405v6.081c0 .672.545 1.217 1.216 1.217h24.325c.672 0 1.216-.545 1.216-1.217v-6.08h.405a1.216 1.216 0 100-2.433zM6.587 21.794v3.953H4.155v-4.865h2.432v.912zm4.865 0v3.953H9.02v-4.865h2.432v.912zm4.865 0v3.953h-2.433v-4.865h2.433v.912zm4.865 0v3.953h-2.433v-4.865h2.433v.912zm4.865 3.953h-2.433v-4.865h2.433v4.865z"/></g><defs><clipPath id="tclip0"><path d="M.101 0h30v30h-30z"/></clipPath></defs></symbol><symbol viewBox="0 0 22 22" id="vue-link-square-item" xmlns="http://www.w3.org/2000/svg"><path d="M13.75 8.25h-5.5v5.5h5.5v-5.5zM5.5 0H0v5.5h5.5V0zm8.25 16.5h-5.5V22h5.5v-5.5zM5.5 8.25H0v5.5h5.5v-5.5zm0 8.25H0V22h5.5v-5.5zM22 0h-5.5v5.5H22V0zm-8.25 0h-5.5v5.5h5.5V0zM22 8.25h-5.5v5.5H22v-5.5zm0 8.25h-5.5V22H22v-5.5z"/></symbol><symbol viewBox="0 0 22 22" id="vue-link-table-item" xmlns="http://www.w3.org/2000/svg"><path d="M0 2.234h4.868v4.868H0V2.234zm6.415 0H22v4.868H6.415V2.234zM0 8.551h4.868v4.868H0V8.551zm6.415 0H22v4.868H6.415V8.551zM0 14.868h4.868v4.868H0v-4.868zm6.415 0H22v4.868H6.415v-4.868z"/></symbol></svg>