<svg width="86" height="86" viewBox="0 0 86 86" fill="none" xmlns="http://www.w3.org/2000/svg">
<path d="M6.9006 56.4491C12.1659 56.4491 17.3357 55.6256 22.2348 54.0067C24.6354 53.1879 27.5865 53.939 29.0516 55.4438L38.7215 62.7435C49.9358 56.7573 56.8435 49.8518 62.748 38.7217L55.6631 29.3038C53.8223 27.4656 53.1621 24.7803 53.9531 22.2608C55.5791 17.3359 56.405 12.1686 56.405 6.90105C56.4048 3.09578 59.5006 0 63.3056 0H79.0992C82.9042 0 86 3.09578 86 6.90083C86 50.5167 50.5165 86 6.9006 86C3.09555 86 -0.000228882 82.9042 -0.000228882 79.0992V63.3498C-7.62939e-06 59.5449 3.09577 56.4491 6.9006 56.4491Z" fill="#2D373F"/>
</svg>
