<svg width="12" height="12" viewBox="0 0 12 12" fill="none" xmlns="http://www.w3.org/2000/svg">
<path d="M6.66295 6.00078L11.8627 0.800994C12.0458 0.617924 12.0458 0.321112 11.8627 0.138065C11.6796 -0.0449811 11.3828 -0.0450046 11.1998 0.138065L5.99999 5.33785L0.800231 0.138065C0.617161 -0.0450046 0.320349 -0.0450046 0.137302 0.138065C-0.0457441 0.321135 -0.0457675 0.617947 0.137302 0.800994L5.33707 6.00076L0.137302 11.2005C-0.0457675 11.3836 -0.0457675 11.6804 0.137302 11.8635C0.228826 11.955 0.348802 12.0007 0.468778 12.0007C0.588755 12.0007 0.708708 11.955 0.800254 11.8635L5.99999 6.66371L11.1998 11.8635C11.2913 11.955 11.4113 12.0007 11.5312 12.0007C11.6512 12.0007 11.7712 11.955 11.8627 11.8635C12.0458 11.6804 12.0458 11.3836 11.8627 11.2005L6.66295 6.00078Z" fill="#283138"/>
</svg>
