<svg width="20" height="20" viewBox="0 0 20 20" fill="none" xmlns="http://www.w3.org/2000/svg">
<g clip-path="url(#clip0)">
<path d="M3.3335 5.625C3.3335 3.4425 5.10933 1.66667 7.29183 1.66667H14.9027C14.6285 0.7075 13.7543 0 12.7085 0H3.12516C1.861 0 0.833496 1.0275 0.833496 2.29167V15.2083C0.833496 16.4725 1.861 17.5 3.12516 17.5H3.3335V5.625Z" fill="white"/>
<path d="M16.875 3.3335H7.29167C6.0275 3.3335 5 4.361 5 5.62516V17.7085C5 18.9727 6.0275 20.0002 7.29167 20.0002H16.875C18.1392 20.0002 19.1667 18.9727 19.1667 17.7085V5.62516C19.1667 4.361 18.1392 3.3335 16.875 3.3335ZM15.2083 17.5002H8.95833C8.61333 17.5002 8.33333 17.2202 8.33333 16.8752C8.33333 16.5302 8.61333 16.2502 8.95833 16.2502H15.2083C15.5533 16.2502 15.8333 16.5302 15.8333 16.8752C15.8333 17.2202 15.5533 17.5002 15.2083 17.5002ZM15.2083 14.1668H8.95833C8.61333 14.1668 8.33333 13.8868 8.33333 13.5418C8.33333 13.1968 8.61333 12.9168 8.95833 12.9168H15.2083C15.5533 12.9168 15.8333 13.1968 15.8333 13.5418C15.8333 13.8868 15.5533 14.1668 15.2083 14.1668ZM15.2083 11.2502H8.95833C8.61333 11.2502 8.33333 10.9702 8.33333 10.6252C8.33333 10.2802 8.61333 10.0002 8.95833 10.0002H15.2083C15.5533 10.0002 15.8333 10.2802 15.8333 10.6252C15.8333 10.9702 15.5533 11.2502 15.2083 11.2502ZM15.2083 7.91683H8.95833C8.61333 7.91683 8.33333 7.63683 8.33333 7.29183C8.33333 6.94683 8.61333 6.66683 8.95833 6.66683H15.2083C15.5533 6.66683 15.8333 6.94683 15.8333 7.29183C15.8333 7.63683 15.5533 7.91683 15.2083 7.91683Z" fill="white"/>
</g>
<defs>
<clipPath id="clip0">
<rect width="20" height="20" fill="white"/>
</clipPath>
</defs>
</svg>
