<svg width="20" height="20" viewBox="0 0 20 20" fill="none" xmlns="http://www.w3.org/2000/svg">
<path d="M19.1298 10.8491C18.5499 10.1234 17.8087 9.65303 16.9058 9.4377C17.1907 9.00718 17.3328 8.52799 17.3328 8.00024C17.3328 7.26409 17.0723 6.63568 16.5517 6.11479C16.0309 5.59408 15.4025 5.33362 14.6663 5.33362C14.0066 5.33362 13.4303 5.54891 12.9373 5.9795C12.5278 4.97946 11.873 4.17742 10.9738 3.57334C10.0746 2.96908 9.08329 2.66699 7.99984 2.66699C6.52772 2.66699 5.27072 3.18796 4.22904 4.22963C3.1873 5.27105 2.66659 6.52812 2.66659 8.00035C2.66659 8.09061 2.67356 8.23995 2.68742 8.4482C1.86801 8.83016 1.2153 9.40304 0.729072 10.1668C0.243024 10.9309 0 11.764 0 12.667C0 13.9518 0.456678 15.0505 1.36978 15.9637C2.28292 16.8771 3.38191 17.3336 4.6666 17.3336H16C17.104 17.3336 18.0467 16.9428 18.828 16.1617C19.6093 15.3806 20 14.438 20 13.3336C19.9999 12.403 19.7098 11.575 19.1298 10.8491ZM13.2291 11.2501L9.57284 14.9066C9.51041 14.9689 9.43051 15.0003 9.33324 15.0003C9.23605 15.0003 9.15615 14.9689 9.09365 14.9066L5.42709 11.2399C5.36459 11.1774 5.3334 11.0975 5.3334 11.0003C5.3334 10.91 5.36623 10.8319 5.4322 10.7659C5.49831 10.7 5.57627 10.667 5.66654 10.667H7.99988V7.00042C7.99988 6.91015 8.03289 6.832 8.09882 6.76593C8.16482 6.70008 8.2429 6.66713 8.33316 6.66713H10.3334C10.4238 6.66713 10.5015 6.69997 10.5678 6.76593C10.6337 6.832 10.6666 6.91015 10.6666 7.00042V10.667H12.9999C13.0972 10.667 13.1771 10.6982 13.2394 10.7606C13.3019 10.8231 13.3329 10.903 13.3329 11.0002C13.3329 11.0839 13.2984 11.1669 13.2291 11.2501Z" fill="black"/>
</svg>
