<svg width="27" height="27" viewBox="0 0 27 27" fill="none" xmlns="http://www.w3.org/2000/svg">
<path d="M13.5 0C6.05565 0 0 6.05623 0 13.5C0 20.9438 6.05565 27 13.5 27C20.9444 27 27 20.9438 27 13.5C27 6.05623 20.9444 0 13.5 0ZM18.8668 13.973L10.9918 19.0355C10.8996 19.0953 10.793 19.125 10.6875 19.125C10.5952 19.125 10.5018 19.1019 10.4184 19.0564C10.2371 18.9575 10.125 18.7685 10.125 18.5625V8.4375C10.125 8.23152 10.2371 8.04252 10.4184 7.94364C10.5963 7.84587 10.8194 7.85188 10.9918 7.96453L18.8668 13.027C19.0272 13.1303 19.125 13.3088 19.125 13.5C19.125 13.6912 19.0272 13.8697 18.8668 13.973Z" fill="#FFB000"/>
</svg>
