<svg width="18" height="16" viewBox="0 0 18 16" fill="none" xmlns="http://www.w3.org/2000/svg">
<path d="M0.749997 8.75L15.7121 8.75L9.98287 14.207C9.68287 14.4927 9.67125 14.9675 9.957 15.2675C10.2424 15.5671 10.7171 15.5791 11.0175 15.2934L17.5605 9.06088C17.8436 8.77738 18 8.40088 18 8C18 7.5995 17.8436 7.22263 17.5474 6.92675L11.0171 0.707005C10.872 0.56863 10.686 0.500005 10.5 0.500005C10.302 0.500005 10.104 0.578005 9.95662 0.73288C9.67087 1.03288 9.6825 1.50726 9.9825 1.79301L15.7358 7.25L0.749997 7.25C0.335997 7.25 -3.12282e-06 7.586 -3.15901e-06 8C-3.1952e-06 8.414 0.335997 8.75 0.749997 8.75Z" fill="black"/>
</svg>
