<svg width="31" height="30" viewBox="0 0 31 30" fill="none" xmlns="http://www.w3.org/2000/svg">
<g clip-path="url(#clip0)">
<path d="M13.8845 10.7473H7.19531V16.0176H13.8845V10.7473Z" fill="white"/>
<path d="M7.30566 8.31467H13.8845V1.82043C10.5313 2.3404 7.8684 4.97553 7.30566 8.31467Z" fill="white"/>
<path d="M16.3174 1.82043V8.31473H22.8962C22.3335 4.97553 19.6706 2.3404 16.3174 1.82043Z" fill="white"/>
<path d="M23.0066 10.7473H16.3174V16.0176H23.0066V10.7473Z" fill="white"/>
<path d="M28.8844 18.4498H27.2627H25.4384H24.2222H23.0059H22.3979H17.533H16.3168H15.1006H13.8844H12.6681H7.80326H7.19518H5.97895H4.76277H2.9384H1.31682C0.645215 18.4498 0.100586 18.9944 0.100586 19.6661C0.100586 20.3377 0.645215 20.8823 1.31682 20.8823H1.72223V26.9634C1.72223 27.635 2.26686 28.1796 2.93846 28.1796H7.80332H12.6682H17.533H22.3979H27.2628C27.9346 28.1796 28.479 27.6351 28.479 26.9634V20.8823H28.8844C29.5562 20.8823 30.1006 20.3378 30.1006 19.6661C30.1006 18.9944 29.5561 18.4498 28.8844 18.4498ZM6.58709 21.7944V23.0106V25.7472H4.15463V20.8823H4.76271H5.97895H6.58703V21.7944H6.58709ZM11.452 21.7944V23.0106V25.7472H9.01955V23.0106V21.7944V20.8822H11.452V21.7944ZM16.3168 21.7944V23.0106V25.7472H13.8844V23.0106V21.7944V20.8822H15.1006H16.3168V21.7944ZM21.1817 21.7944V23.0106V25.7472H18.7492V23.0106V21.7944V20.8822H21.1817V21.7944ZM26.0465 25.7472H23.6141V23.0106V21.7944V20.8822H24.2222H25.4384H26.0465V25.7472H26.0465Z" fill="white"/>
</g>
<defs>
<clipPath id="clip0">
<rect x="0.100586" width="30" height="30" fill="white"/>
</clipPath>
</defs>
</svg>
