<svg width="21" height="20" viewBox="0 0 21 20" fill="none" xmlns="http://www.w3.org/2000/svg">
<path d="M7.44878 3.3407C7.70456 3.15343 7.69718 3.1677 9.49556 2.15196C9.49948 2.15 9.50301 2.14765 9.50694 2.14569C8.56381 0.820566 7.02412 0.0057373 5.35491 0.0057373C2.54673 0.0057373 0.261719 2.28757 0.261719 5.09186V19.7984C0.261719 19.9065 0.349634 19.9943 0.457958 19.9943H2.42035C2.52867 19.9943 2.61659 19.9065 2.61659 19.7984V5.09186C2.61659 3.57782 3.85525 2.34715 5.37375 2.35734C6.18775 2.36282 6.93856 2.73673 7.44878 3.3407Z" fill="#1B73B8"/>
<path d="M11.3381 13.786C11.6588 13.7326 11.8754 13.4296 11.822 13.1094L11.731 12.5648C11.6776 12.2446 11.3742 12.0283 11.0535 12.0816C10.7328 12.1351 10.5162 12.438 10.5696 12.7582L10.6606 13.3028C10.714 13.623 11.0173 13.8394 11.3381 13.786Z" fill="#1B73B8"/>
<path d="M14.3239 12.1526C14.6074 11.9937 14.7083 11.6353 14.5491 11.3522L14.2946 10.8993C14.1354 10.6161 13.7766 10.5154 13.4931 10.6744C13.2095 10.8333 13.1087 11.1916 13.2678 11.4748L13.5223 11.9276C13.6816 12.2111 14.0407 12.3113 14.3239 12.1526Z" fill="#1B73B8"/>
<path d="M17.2753 10.4582C17.488 10.2127 17.4611 9.84141 17.2153 9.62899L16.7971 9.26778C16.5512 9.05539 16.1795 9.08224 15.9667 9.32775C15.754 9.57329 15.7809 9.94457 16.0268 10.157L16.4449 10.5182C16.6909 10.7306 17.0626 10.7037 17.2753 10.4582Z" fill="#1B73B8"/>
<path d="M11.9829 16.0539C11.936 15.7326 11.6372 15.5102 11.3154 15.5569C10.9937 15.6038 10.7709 15.9022 10.8178 16.2235L10.9002 16.7882C10.9472 17.1098 11.2463 17.3319 11.5677 17.2851C11.8894 17.2383 12.1122 16.9399 12.0653 16.6186L11.9829 16.0539Z" fill="#1B73B8"/>
<path d="M14.5673 14.4499C14.4454 14.1489 14.1023 14.0035 13.8009 14.1251C13.4994 14.2468 13.3538 14.5895 13.4757 14.8905L13.6772 15.3884C13.7991 15.6896 14.1423 15.8348 14.4436 15.7132C14.7451 15.5915 14.8907 15.2488 14.7688 14.9478L14.5673 14.4499Z" fill="#1B73B8"/>
<path d="M17.1141 12.8512C16.9203 12.5905 16.5515 12.5361 16.2905 12.7297C16.0295 12.9233 15.975 13.2915 16.1688 13.5522L16.4895 13.9834C16.6833 14.2441 17.0521 14.2984 17.3131 14.1048C17.5741 13.9113 17.6286 13.5431 17.4347 13.2824L17.1141 12.8512Z" fill="#1B73B8"/>
<path d="M20.0773 11.6452L19.6376 11.2808C19.3874 11.0734 19.0162 11.1079 18.8086 11.3577C18.6009 11.6076 18.6354 11.9782 18.8856 12.1856L19.3253 12.55C19.5756 12.7574 19.9467 12.7229 20.1544 12.4731C20.362 12.2232 20.3275 11.8526 20.0773 11.6452Z" fill="#1B73B8"/>
<path d="M7.55272 8.27438L14.1075 4.57179L13.9203 4.241C13.1563 2.89114 11.4394 2.40499 10.0748 3.17533C8.3053 4.17453 8.27716 4.17527 8.03115 4.37661C7.01039 5.20923 6.66466 6.70767 7.36512 7.9432L7.55272 8.27438Z" fill="#1B73B8"/>
<path d="M16.4568 5.8816L16.197 5.42304C16.0361 5.13768 15.6719 5.0391 15.3893 5.19886C15.0489 5.39067 7.59082 9.60327 7.43254 9.69275C7.15066 9.85145 7.04653 10.213 7.20843 10.4993L7.46825 10.9583C7.68537 11.3416 8.17165 11.4762 8.55581 11.2597L16.155 6.96765C16.5384 6.75071 16.6742 6.26538 16.4568 5.8816Z" fill="#1B73B8"/>
</svg>
