<svg width="21" height="20" viewBox="0 0 21 20" fill="none" xmlns="http://www.w3.org/2000/svg">
<g clip-path="url(#clip0)">
<path d="M2.13792 7.91668H4.22414C4.09564 7.91668 3.97461 7.8575 3.89536 7.75668C3.81607 7.65586 3.78854 7.52418 3.81944 7.39918L4.07898 6.36336C4.21835 5.80586 4.71819 5.41668 5.29316 5.41668H7.9794C8.66953 5.41668 9.23113 5.9775 9.23113 6.66668V7.5C9.23113 7.73 9.0442 7.91668 8.81388 7.91668H11.3174C11.087 7.91668 10.9001 7.73 10.9001 7.5V6.66668C10.9001 5.9775 11.4617 5.41668 12.1518 5.41668H14.8381C15.413 5.41668 15.9129 5.80586 16.0522 6.36336L16.3118 7.39918C16.3435 7.52336 16.3151 7.65586 16.2359 7.75668C16.1566 7.8575 16.0356 7.91668 15.9071 7.91668H17.9933C18.2236 7.91668 18.4106 7.73 18.4106 7.5V5C18.4106 3.85169 17.4743 2.91669 16.3243 2.91669H3.80692C2.657 2.91669 1.7207 3.85169 1.7207 5V7.5C1.7207 7.73 1.9076 7.91668 2.13792 7.91668Z" fill="#1B73B8"/>
<path d="M17.9934 8.75H2.13798C0.988058 8.75 0.0517578 9.685 0.0517578 10.8333V16.6666C0.0517578 16.8966 0.238697 17.0833 0.469017 17.0833C0.699337 17.0833 0.886276 16.8966 0.886276 16.6666V15.4166H19.2451V16.6666C19.2451 16.8966 19.432 17.0833 19.6624 17.0833C19.8927 17.0833 20.0796 16.8966 20.0796 16.6666V10.8333C20.0796 9.685 19.1433 8.75 17.9934 8.75ZM19.2451 14.5833H0.886237V13.75H19.2451V14.5833H19.2451Z" fill="#1B73B8"/>
</g>
<defs>
<clipPath id="clip0">
<rect x="0.0517578" width="20.0278" height="20" fill="white"/>
</clipPath>
</defs>
</svg>
