<svg width="11" height="14" viewBox="0 0 11 14" fill="none" xmlns="http://www.w3.org/2000/svg">
<path d="M5.79607 0C2.99642 0 0.71875 2.27451 0.71875 5.07024C0.71875 8.53983 5.26246 13.6334 5.45591 13.8485C5.63761 14.0506 5.95486 14.0503 6.13624 13.8485C6.32969 13.6334 10.8734 8.53983 10.8734 5.07024C10.8733 2.27451 8.59569 0 5.79607 0ZM5.79607 7.62122C4.3875 7.62122 3.24157 6.47686 3.24157 5.07024C3.24157 3.66362 4.38753 2.51929 5.79607 2.51929C7.20462 2.51929 8.35054 3.66365 8.35054 5.07027C8.35054 6.47689 7.20462 7.62122 5.79607 7.62122Z" fill="#1B73B8"/>
</svg>
