<svg width="31" height="30" viewBox="0 0 31 30" fill="none" xmlns="http://www.w3.org/2000/svg">
<g clip-path="url(#clip0)">
<path d="M29.2054 28.0368H21.6985C21.5569 26.1851 20.2199 24.6635 18.4592 24.2437V14.6688C18.4592 13.591 19.3361 12.7142 20.4139 12.7142C21.4918 12.7142 22.3686 13.591 22.3686 14.6688C22.3686 15.2086 22.8062 15.6462 23.346 15.6462C23.8857 15.6462 24.3233 15.2086 24.3233 14.6688C24.3233 13.591 25.2002 12.7142 26.278 12.7142C27.3558 12.7142 28.2001 13.5728 28.2001 14.6688C28.2001 15.2086 28.6377 15.6462 29.1774 15.6462C29.7172 15.6462 30.1548 15.2086 30.1548 14.6688C30.1548 7.88017 24.9178 2.48926 18.4591 2.00035V0.985858C18.4591 0.446093 18.0215 0.0085144 17.4818 0.0085144C16.942 0.0085144 16.5044 0.446093 16.5044 0.985858V2.00023C9.93555 2.4998 4.74373 7.99092 4.74373 14.6688C4.74373 15.2086 5.18131 15.6462 5.72107 15.6462C6.26084 15.6462 6.69842 15.2086 6.69842 14.6688C6.69842 13.591 7.58992 12.7142 8.68568 12.7142C9.76352 12.7142 10.6404 13.591 10.6404 14.6688C10.6404 15.2086 11.0779 15.6462 11.6177 15.6462C12.1575 15.6462 12.5951 15.2086 12.5951 14.6688C12.5951 13.591 13.4719 12.7142 14.5497 12.7142C15.6276 12.7142 16.511 13.591 16.511 14.6688V24.2413C14.7455 24.6579 13.3976 26.1816 13.2555 28.0368H11.3441L8.42307 25.1005L11.3399 22.1684H12.8882C13.428 22.1684 13.8655 21.7308 13.8655 21.191C13.8655 20.6513 13.428 20.2202 12.8882 20.2202C12.3807 20.2202 1.68438 20.2202 1.15996 20.2202C0.620195 20.2202 0.182617 20.6513 0.182617 21.191C0.182617 21.7308 0.620195 22.1684 1.15996 22.1684H2.74908L5.66588 25.1005L2.7448 28.0368H1.18785C0.648086 28.0368 0.210508 28.4744 0.210508 29.0141C0.210508 29.5539 0.648086 29.9915 1.18785 29.9915C2.59744 29.9915 28.4494 29.9915 29.2054 29.9915C29.7452 29.9915 30.1827 29.5539 30.1827 29.0141C30.1827 28.4744 29.7452 28.0368 29.2054 28.0368ZM27.547 10.9715C27.1447 10.8326 26.7176 10.7595 26.2782 10.7595C25.4747 10.7595 24.7273 11.0034 24.1055 11.4207C23.7968 9.16941 23.1118 6.7615 21.8992 4.87402C24.5034 6.06025 26.5545 8.26156 27.547 10.9715ZM18.4593 4.16129C20.5657 5.20314 21.7 8.7875 22.0875 11.1365C21.5798 10.8951 21.0125 10.7594 20.414 10.7594C19.7021 10.7594 19.0348 10.9515 18.4593 11.2853V4.16129ZM10.8584 11.4206C10.2366 11.0033 9.48918 10.7594 8.68574 10.7594C8.21646 10.7594 7.76623 10.8415 7.34846 10.9914C8.349 8.25963 10.431 6.04238 13.0753 4.85732C11.8538 6.75049 11.167 9.16994 10.8584 11.4206ZM16.5111 11.2854C15.9356 10.9517 15.2617 10.7595 14.5499 10.7595C13.9513 10.7595 13.384 10.8951 12.8764 11.1365C13.2632 8.79142 14.4057 5.20262 16.5111 4.16129V11.2854ZM5.50639 22.1684H8.58279L7.04465 23.7147L5.50639 22.1684ZM5.50223 28.0368L7.04465 26.4864L8.58695 28.0368H5.50223ZM15.2199 28.0367C15.3783 26.9331 16.3302 26.0821 17.4771 26.0821C17.4785 26.0821 17.48 26.0821 17.4814 26.0821C17.4815 26.0821 17.4818 26.0821 17.482 26.0821C17.482 26.0821 17.4821 26.0821 17.4821 26.0821C18.6268 26.0847 19.5761 26.9347 19.7344 28.0367H15.2199Z" fill="white"/>
</g>
<defs>
<clipPath id="clip0">
<rect x="0.182617" width="30" height="30" fill="white"/>
</clipPath>
</defs>
</svg>
