<svg width="22" height="22" viewBox="0 0 22 22" fill="none" xmlns="http://www.w3.org/2000/svg">
<path d="M10.8137 0.676758C6.86064 0.676758 3.64453 3.89287 3.64453 7.84591C3.64453 12.8145 10.8207 21.3018 10.8207 21.3018C10.8207 21.3018 17.9828 12.5701 17.9828 7.84591C17.9828 3.89287 14.7668 0.676758 10.8137 0.676758ZM12.9768 9.94504C12.3803 10.5414 11.5971 10.8396 10.8137 10.8396C10.0304 10.8396 9.24692 10.5414 8.65073 9.94504C7.45797 8.75241 7.45797 6.81176 8.65073 5.619C9.22829 5.04119 9.99656 4.72295 10.8137 4.72295C11.6308 4.72295 12.399 5.04132 12.9768 5.619C14.1695 6.81176 14.1695 8.75241 12.9768 9.94504Z" fill="white"/>
</svg>
