<svg width="201" height="73" viewBox="0 0 201 73" fill="none" xmlns="http://www.w3.org/2000/svg">
<g clip-path="url(#clip0)">
<path d="M3.37109 72.9997H9.33828V57.8757H12.2905V72.9997H18.2535V55.4729H3.37109V72.9997ZM14.6983 57.8757H15.8415V70.5844H14.6983V57.8757ZM5.78309 57.8757H6.93047V70.5844H5.78309V57.8757ZM31.7456 55.4729H24.2081V72.9997H30.1837V70.2328H31.7498C33.7078 70.2328 35.5855 69.4552 36.97 68.0712C38.3545 66.6872 39.1323 64.8101 39.1323 62.8528C39.1323 60.8955 38.3545 59.0184 36.97 57.6344C35.5855 56.2504 33.7078 55.4729 31.7498 55.4729H31.7456ZM27.7717 70.5844H26.6285V57.8757H27.7758L27.7717 70.5844ZM32.9725 67.6542C32.5721 67.7594 32.1596 67.8115 31.7456 67.8091H30.1837V57.8757H31.7498C32.1642 57.8759 32.5767 57.9308 32.9767 58.0389L32.9725 67.6542ZM35.3803 66.2184V59.4663C36.2388 60.3818 36.7166 61.5896 36.7166 62.8445C36.7166 64.0993 36.2388 65.3071 35.3803 66.2226V66.2184ZM146.475 55.4687H138.937V72.9956H144.888V70.2286H146.462C148.42 70.2286 150.298 69.4511 151.682 68.0671C153.067 66.683 153.845 64.8059 153.845 62.8486C153.845 60.8914 153.067 59.0142 151.682 57.6302C150.298 56.2462 148.42 55.4687 146.462 55.4687H146.475ZM142.497 70.5802H141.349V57.8757H142.497V70.5802ZM147.693 67.65C147.296 67.7547 146.886 67.8068 146.475 67.8049H144.888V57.8757H146.462C146.874 57.8765 147.283 57.9314 147.681 58.0389L147.693 67.65ZM150.105 66.2184V59.4663C150.966 60.3816 151.445 61.5904 151.445 62.8465C151.445 64.1027 150.966 65.3115 150.105 66.2268V66.2184ZM82.6028 55.4729H74.4706C72.5127 55.4729 70.6349 56.2504 69.2504 57.6344C67.8659 59.0184 67.0881 60.8955 67.0881 62.8528C67.0881 64.8101 67.8659 66.6872 69.2504 68.0712C70.6349 69.4552 72.5127 70.2328 74.4706 70.2328H75.5468V72.9997H81.514V70.2328H82.6028C84.5608 70.2328 86.4385 69.4552 87.823 68.0712C89.2075 66.6872 89.9853 64.8101 89.9853 62.8528C89.9853 60.8955 89.2075 59.0184 87.823 57.6344C86.4385 56.2504 84.5608 55.4729 82.6028 55.4729ZM70.8359 66.2226C69.9756 65.308 69.4966 64.0999 69.4966 62.8445C69.4966 61.589 69.9756 60.3809 70.8359 59.4663V66.2226ZM75.5468 67.8133H74.4706C74.0567 67.8152 73.6442 67.7631 73.2437 67.6584V58.0305C73.6439 57.923 74.0563 57.8681 74.4706 57.8673H75.5468V67.8133ZM79.1062 70.5844H77.9588V57.8757H79.1062V70.5844ZM83.8255 67.6542C83.4264 67.7587 83.0154 67.8107 82.6028 67.8091H81.514V57.8757H82.6028C83.0157 57.8768 83.4268 57.9317 83.8255 58.0389V67.6542ZM86.2333 66.2184V59.4663C87.0937 60.3809 87.5727 61.589 87.5727 62.8445C87.5727 64.0999 87.0937 65.308 86.2333 66.2226V66.2184ZM117.405 57.8715H122.087V72.9956H128.046V57.8757H132.744V55.4729H117.405V57.8715ZM124.495 57.8715H125.625V70.5802H124.495V57.8715ZM191.21 55.4687V59.2361L188.253 63.9286V55.4729H182.295V72.9997H188.258V68.4244L191.21 63.7361V72.9997H197.177V55.4729L191.21 55.4687ZM185.854 70.5802H184.711V57.8757H185.854V70.5802ZM194.769 70.5802H193.626V57.8757H194.769V70.5802ZM189.447 50.7134V55.6152L192.537 50.7134H189.447ZM167.747 58.9766C166.708 58.9774 165.692 59.2863 164.828 59.8643C163.964 60.4422 163.292 61.2632 162.895 62.2235C162.498 63.1837 162.394 64.2401 162.598 65.259C162.801 66.2779 163.303 67.2136 164.038 67.9477C164.774 68.6819 165.711 69.1815 166.73 69.3833C167.75 69.5852 168.806 69.4804 169.766 69.082C170.726 68.6836 171.547 68.0096 172.123 67.1452C172.7 66.2808 173.008 65.2649 173.007 64.2258C173.005 62.8333 172.449 61.4985 171.463 60.515C170.477 59.5315 169.14 58.9797 167.747 58.9808V58.9766ZM167.747 67.0765C167.184 67.0774 166.633 66.9112 166.165 66.5991C165.696 66.287 165.33 65.843 165.114 65.3232C164.898 64.8034 164.84 64.2311 164.949 63.6788C165.058 63.1265 165.329 62.6189 165.727 62.2202C166.124 61.8215 166.631 61.5497 167.183 61.4391C167.736 61.3284 168.308 61.3839 168.829 61.5986C169.349 61.8133 169.795 62.1775 170.108 62.6451C170.422 63.1128 170.59 63.6629 170.591 64.2258C170.591 64.9808 170.291 65.7051 169.759 66.2401C169.226 66.7751 168.502 67.0774 167.747 67.0807V67.0765ZM167.747 55.4687C166.012 55.4679 164.316 55.9815 162.874 56.9445C161.431 57.9075 160.306 59.2767 159.642 60.8788C158.978 62.4809 158.804 64.2439 159.143 65.9448C159.482 67.6456 160.317 69.2079 161.544 70.4339C162.771 71.6598 164.334 72.4944 166.036 72.832C167.738 73.1696 169.501 72.9951 171.103 72.3305C172.706 71.6659 174.075 70.5411 175.038 69.0984C176 67.6557 176.513 65.96 176.512 64.2258C176.502 61.906 175.575 59.6842 173.933 58.0446C172.291 56.405 170.068 55.4806 167.747 55.4729V55.4687ZM167.747 70.5802C166.49 70.5802 165.261 70.2075 164.216 69.5093C163.17 68.8111 162.356 67.8187 161.874 66.6576C161.393 65.4964 161.267 64.2188 161.513 62.9862C161.758 61.7535 162.363 60.6213 163.252 59.7326C164.141 58.8439 165.274 58.2388 166.507 57.9936C167.74 57.7484 169.018 57.8742 170.18 58.3552C171.341 58.8361 172.334 59.6506 173.033 60.6955C173.731 61.7405 174.104 62.9691 174.104 64.2258C174.104 65.9115 173.434 67.5282 172.242 68.7205C171.05 69.9129 169.433 70.5833 167.747 70.5844V70.5802ZM104.47 61.371C104.927 61.371 105.378 61.4814 105.783 61.6927C106.188 61.9041 106.537 62.2101 106.798 62.5849L107.514 63.6021L112.271 60.044L111.576 59.0812C110.697 57.8657 109.52 56.896 108.159 56.2651C106.797 55.6341 105.297 55.363 103.801 55.4776C102.304 55.5922 100.863 56.0887 99.6133 56.9196C98.364 57.7505 97.3489 58.8881 96.6651 60.2234C95.9814 61.5586 95.6518 63.047 95.7081 64.546C95.7643 66.045 96.2044 67.5045 96.9863 68.7848C97.7682 70.0651 98.8657 71.1235 100.174 71.8585C101.482 72.5936 102.957 72.9807 104.457 72.983C105.802 72.9871 107.13 72.6797 108.336 72.0848C109.542 71.49 110.594 70.624 111.409 69.5546L112.125 68.6295L107.518 64.8328L106.769 65.8793C106.484 66.2752 106.102 66.5913 105.66 66.7974C105.218 67.0034 104.73 67.0925 104.244 67.056C103.757 67.0195 103.289 66.8587 102.882 66.589C102.476 66.3193 102.145 65.9498 101.923 65.5158C101.7 65.0818 101.593 64.598 101.612 64.1107C101.63 63.6234 101.773 63.149 102.027 62.7329C102.282 62.3169 102.639 61.9731 103.064 61.7346C103.49 61.4961 103.97 61.3709 104.457 61.371H104.47ZM104.47 69.4709C105.714 69.4674 106.916 69.0224 107.862 68.2151L108.724 68.9267C107.806 69.7574 106.665 70.3023 105.442 70.4946C104.219 70.6868 102.966 70.5182 101.837 70.0092C100.708 69.5002 99.7519 68.6731 99.0862 67.6292C98.4205 66.5853 98.074 65.3699 98.089 64.132C98.104 62.8941 98.4799 61.6874 99.1707 60.6599C99.8615 59.6324 100.837 58.8287 101.978 58.3472C103.119 57.8657 104.376 57.7274 105.594 57.9493C106.812 58.1711 107.94 58.7434 108.837 59.5961L107.941 60.2575C107.302 59.6992 106.537 59.3039 105.712 59.1055C104.887 58.9071 104.026 58.9114 103.203 59.1182C102.38 59.3249 101.619 59.7278 100.985 60.2925C100.352 60.8572 99.8647 61.5669 99.5654 62.3609C99.2662 63.1548 99.1637 64.0094 99.2668 64.8516C99.3699 65.6937 99.6755 66.4984 100.158 67.1967C100.64 67.8951 101.284 68.4664 102.035 68.8617C102.786 69.257 103.621 69.4646 104.47 69.4667V69.4709ZM52.9637 58.964C51.9243 58.9615 50.9075 59.2672 50.0419 59.8424C49.1762 60.4176 48.5007 61.2365 48.1006 62.1955C47.7006 63.1544 47.594 64.2105 47.7943 65.23C47.9947 66.2496 48.493 67.1869 49.2262 67.9233C49.9594 68.6598 50.8946 69.1624 51.9135 69.3675C52.9325 69.5726 53.9894 69.4711 54.9506 69.0758C55.9118 68.6805 56.7342 68.0091 57.3137 67.1466C57.8933 66.284 58.2039 65.2691 58.2064 64.23C58.2042 62.8407 57.652 61.5087 56.6704 60.5251C55.6888 59.5415 54.3577 58.9863 52.9678 58.9808L52.9637 58.964ZM52.9637 67.064C52.4003 67.0656 51.8491 66.9002 51.3798 66.5886C50.9106 66.277 50.5443 65.8333 50.3273 65.3136C50.1104 64.7938 50.0526 64.2214 50.1612 63.6688C50.2698 63.1162 50.5399 62.6083 50.9374 62.2092C51.3348 61.8101 51.8418 61.5378 52.3941 61.4268C52.9464 61.3158 53.5193 61.3711 54.0401 61.5857C54.561 61.8002 55.0065 62.1644 55.3203 62.6321C55.634 63.0999 55.8019 63.6501 55.8028 64.2133C55.8061 64.969 55.5096 65.6952 54.9782 66.2327C54.4467 66.7702 53.7238 67.0752 52.9678 67.0807L52.9637 67.064ZM52.9637 55.4561C51.2287 55.4545 49.5322 55.9674 48.0889 56.9299C46.6456 57.8924 45.5204 59.2613 44.8557 60.8634C44.191 62.4654 44.0167 64.2285 44.3547 65.9297C44.6928 67.6308 45.5281 69.1934 46.7549 70.4198C47.9818 71.6462 49.5449 72.4812 51.2467 72.8192C52.9484 73.1571 54.7122 72.9828 56.3148 72.3183C57.9174 71.6539 59.2867 70.5291 60.2496 69.0863C61.2125 67.6435 61.7256 65.9477 61.7239 64.2133C61.7107 61.8971 60.7835 59.6797 59.144 58.0431C57.5044 56.4064 55.2849 55.4828 52.9678 55.4729L52.9637 55.4561ZM52.9637 70.5677C51.7063 70.5685 50.4769 70.1965 49.431 69.4988C48.3851 68.8011 47.5697 67.8089 47.0879 66.6479C46.6062 65.4869 46.4797 64.2091 46.7245 62.9762C46.9693 61.7433 47.5744 60.6106 48.4632 59.7215C49.352 58.8325 50.4846 58.2268 51.7178 57.9813C52.951 57.7358 54.2293 57.8614 55.3911 58.3422C56.5528 58.823 57.5459 59.6375 58.2445 60.6825C58.9432 61.7276 59.3161 62.9563 59.3161 64.2133C59.3183 65.8993 58.651 67.5174 57.4607 68.7119C56.2704 69.9065 54.6545 70.58 52.9678 70.5844L52.9637 70.5677Z" fill="#FFB000"/>
<path d="M196.005 40.7423H164.062C168.02 37.18 170.452 30.5703 167.5 27.3471C165.679 25.3503 161.86 24.5508 158.443 26.7861L157.572 25.4215H151.789C146.232 37.0586 135.039 43.5721 131.379 38.0298C131.345 37.9754 131.316 37.9168 131.278 37.8582C136.772 38.1679 145.436 33.3707 141.031 27.1126C138.87 24.0443 130.449 24.0568 126.467 28.5401C124.762 30.3788 123.674 32.7044 123.356 35.1917C121.963 34.4496 120.658 33.5538 119.465 32.521C120.847 29.1306 121.539 25.499 121.501 21.8383C121.501 10.3351 110.416 2.3021 99.8052 2.3021C99.7265 10.3764 102.327 18.2492 107.2 24.6889L107.753 25.3964H105.546C102.313 27.1712 100.232 30.6582 99.8135 34.1033C97.5397 35.9451 93.0382 38.7372 91.9913 38.6409C90.5466 38.5279 92.029 35.5098 92.029 35.5098L96.853 25.3964H89.8598L87.3473 30.6038C87.2782 30.6967 87.2271 30.8018 87.1966 30.9135C85.1489 35.2503 80.7813 38.8042 79.4162 38.6828C77.9715 38.5614 79.4581 35.5558 79.4581 35.5558L84.2737 25.434H77.3141L73.1517 34.1159C70.455 36.6275 66.4517 39.9344 64.827 39.2605C63.4325 38.6912 65.0657 35.4093 65.0657 35.4093L81.0912 -0.00439453C49.1029 -0.00439453 52.834 40.7172 30.0037 40.7172H4.99597C3.66992 40.7172 2.39818 41.2438 1.46052 42.1811C0.522865 43.1184 -0.00390625 44.3897 -0.00390625 45.7153C-0.00390625 47.0409 0.522865 48.3122 1.46052 49.2495C2.39818 50.1868 3.66992 50.7134 4.99597 50.7134H196.005C197.331 50.7134 198.602 50.1868 199.54 49.2495C200.478 48.3122 201.004 47.0409 201.004 45.7153C201.004 44.3897 200.478 43.1184 199.54 42.1811C198.602 41.2438 197.331 40.7172 196.005 40.7172V40.7423ZM156.458 31.5917C157.911 28.8122 160.955 26.9033 162.228 28.4689C164.996 31.8847 158.61 41.2781 156.563 39.7126C155.486 38.9633 157.124 35.6144 157.124 35.6144H154.561L156.458 31.5917ZM138.514 28.6615C140.248 30.6331 135.478 35.3298 130.558 36.0582C129.562 31.0349 136.345 26.1875 138.514 28.6489V28.6615ZM106.639 6.34998C112.062 7.14951 118.687 12.3862 118.687 22.1145C118.699 24.9695 118.245 27.8073 117.342 30.5159C111.752 24.7685 106.614 15.5174 106.639 6.33743V6.34998ZM110.592 28.5819C112.312 30.2982 114.191 31.847 116.203 33.2075C113.318 38.9047 108.699 41.2028 106.639 39.1349C104.093 36.5982 107.054 30.8131 110.592 28.5694V28.5819ZM2.40809 45.7446C2.4092 45.0588 2.68221 44.4015 3.16729 43.9166C3.65237 43.4317 4.30996 43.1588 4.99597 43.1577H29.7902C58.8305 43.1577 58.2945 11.323 72.4189 3.15186L58.5583 34.0866C58.5583 34.0866 56.0458 40.0684 59.5633 42.2409C63.0808 44.4135 68.0932 41.1609 71.7405 37.9796C71.3595 39.7335 71.2715 41.8139 72.6576 42.7056C75.258 44.38 80.3584 41.793 84.1774 38.5656C83.9136 40.1605 83.989 41.8725 85.2159 42.6637C88.277 44.6437 95.8857 39.7 99.8303 36.6819C99.94 37.6817 100.251 38.649 100.744 39.5259C101.236 40.4028 101.901 41.171 102.699 41.7846C107.07 45.0665 114.344 42.1279 118.448 34.6098C120.018 35.5179 121.665 36.2882 123.368 36.9121C123.512 38.3207 124.127 39.6395 125.114 40.6544C129.469 45.079 139.352 43.8483 146.889 35.5684L140.805 48.3023H4.99597C4.31069 48.3012 3.65372 48.0288 3.16876 47.5448C2.6838 47.0608 2.41031 46.4045 2.40809 45.7195V45.7446ZM196.005 48.3274H148.602L153.455 37.9879C153.652 39.3693 154.113 41.3367 156.06 42.4502C156.956 42.9635 157.982 43.2036 159.012 43.1409H158.979H196.005C196.353 43.1269 196.701 43.1834 197.026 43.307C197.352 43.4305 197.65 43.6187 197.901 43.8601C198.153 44.1015 198.353 44.3912 198.489 44.7118C198.626 45.0324 198.697 45.3773 198.697 45.7258C198.697 46.0743 198.626 46.4192 198.489 46.7398C198.353 47.0604 198.153 47.3501 197.901 47.5915C197.65 47.8329 197.352 48.021 197.026 48.1446C196.701 48.2682 196.353 48.3247 196.005 48.3106V48.3274Z" fill="white"/>
</g>
<defs>
<clipPath id="clip0">
<rect width="201" height="73" fill="white"/>
</clipPath>
</defs>
</svg>
