<svg width="194" height="70" viewBox="0 0 194 70" fill="none" xmlns="http://www.w3.org/2000/svg">
<g clip-path="url(#clip0)">
<path d="M3.25488 70H9.01476V55.4976H11.8646V70H17.6365V53.1967H3.25488V70ZM14.1854 55.4976H15.2917V67.6831H14.1854V55.4976ZM5.58368 55.4976H6.68997V67.6831H5.58368V55.4976ZM30.6434 53.1967H23.3764V70H29.1322V67.3487H30.6434C31.5932 67.3711 32.538 67.2046 33.4221 66.8591C34.3062 66.5135 35.1118 65.9959 35.7916 65.3366C36.4713 64.6773 37.0115 63.8897 37.3803 63.0201C37.7491 62.1504 37.939 61.2163 37.939 60.2727C37.939 59.3291 37.7491 58.395 37.3803 57.5253C37.0115 56.6557 36.4713 55.8681 35.7916 55.2088C35.1118 54.5495 34.3062 54.0319 33.4221 53.6863C32.538 53.3408 31.5932 53.1743 30.6434 53.1967ZM26.8074 67.6831H25.7012V55.4976H26.8074V67.6831ZM31.8298 64.8965C31.4374 64.9993 31.0331 65.0502 30.6273 65.0478H29.1322V55.4976H30.6434C31.0492 55.4985 31.4533 55.5507 31.8458 55.6529L31.8298 64.8965ZM34.1506 63.5191V57.0223C34.9797 57.9004 35.4411 59.059 35.4411 60.2627C35.4411 61.4665 34.9797 62.6251 34.1506 63.5032V63.5191ZM141.376 53.2126H134.105V70.0159H139.861V67.3647H141.376C143.236 67.3208 145.005 66.5561 146.305 65.2338C147.606 63.9116 148.333 62.1368 148.333 60.2886C148.333 58.4405 147.606 56.6656 146.305 55.3434C145.005 54.0212 143.236 53.2564 141.376 53.2126ZM137.536 67.699H136.429V55.4976H137.536V67.699ZM142.554 64.9124C142.17 65.0136 141.773 65.0645 141.376 65.0637H139.861V55.4976H141.376C141.773 55.5001 142.169 55.5523 142.554 55.6529V64.9124ZM144.883 63.539V57.0223C145.712 57.901 146.174 59.0603 146.174 60.2647C146.174 61.4691 145.712 62.6284 144.883 63.5072V63.539ZM79.7246 53.1967H71.8764C70.9265 53.1743 69.9818 53.3408 69.0976 53.6863C68.2135 54.0319 67.4079 54.5495 66.7281 55.2088C66.0484 55.8681 65.5082 56.6557 65.1395 57.5253C64.7707 58.395 64.5807 59.3291 64.5807 60.2727C64.5807 61.2163 64.7707 62.1504 65.1395 63.0201C65.5082 63.8897 66.0484 64.6773 66.7281 65.3366C67.4079 65.9959 68.2135 66.5135 69.0976 66.8591C69.9818 67.2046 70.9265 67.3711 71.8764 67.3487H72.9185V70H78.6744V67.3487H79.7246C80.6744 67.3711 81.6192 67.2046 82.5033 66.8591C83.3874 66.5135 84.193 65.9959 84.8728 65.3366C85.5525 64.6773 86.0927 63.8897 86.4615 63.0201C86.8303 62.1504 87.0203 61.2163 87.0203 60.2727C87.0203 59.3291 86.8303 58.395 86.4615 57.5253C86.0927 56.6557 85.5525 55.8681 84.8728 55.2088C84.193 54.5495 83.3874 54.0319 82.5033 53.6863C81.6192 53.3408 80.6744 53.1743 79.7246 53.1967ZM68.3691 63.5032C67.5374 62.6265 67.0742 61.4673 67.0742 60.2627C67.0742 59.0581 67.5374 57.899 68.3691 57.0223V63.5032ZM72.9185 65.0319H71.8764C71.4773 65.0321 71.0799 64.9813 70.6939 64.8806V55.6529C71.0801 55.5528 71.4773 55.5006 71.8764 55.4976H72.9185V65.0319ZM76.3496 67.6831H75.2433V55.4976H76.3496V67.6831ZM80.907 64.8965C80.5211 64.9974 80.1236 65.0483 79.7246 65.0478H78.6744V55.4976H79.7246C80.1237 55.5004 80.5209 55.5526 80.907 55.6529V64.8965ZM83.2318 63.5191V57.0223C84.0609 57.9004 84.5223 59.059 84.5223 60.2627C84.5223 61.4665 84.0609 62.6251 83.2318 63.5032V63.5191ZM113.318 55.5135H117.843V70.0159H123.599V55.4976H128.112V53.1967H113.318V55.5135ZM120.16 55.5135H121.262V67.699H120.16V55.5135ZM184.553 53.2126V56.7954L181.699 61.2978V53.2006H175.963V70.004H181.719V65.625L184.569 61.1266V70.008H190.325V53.1967L184.553 53.2126ZM179.378 67.699H178.28V55.4976H179.378V67.699ZM187.984 67.699H186.882V55.4976H187.988L187.984 67.699ZM182.849 48.6505V53.3519L185.831 48.6505H182.849ZM161.906 56.5725C160.901 56.5725 159.919 56.8688 159.084 57.4238C158.249 57.9788 157.598 58.7676 157.215 59.6901C156.832 60.6126 156.733 61.6274 156.931 62.6058C157.129 63.5842 157.615 64.4821 158.328 65.1858C159.04 65.8895 159.947 66.3673 160.933 66.5586C161.92 66.7499 162.941 66.6461 163.867 66.2604C164.794 65.8747 165.585 65.2244 166.139 64.3919C166.693 63.5595 166.986 62.5823 166.98 61.5844C166.977 60.2498 166.441 58.971 165.49 58.0284C164.539 57.0859 163.25 56.5565 161.906 56.5565V56.5725ZM161.906 64.3432C161.362 64.3439 160.83 64.1845 160.378 63.8851C159.925 63.5857 159.572 63.1597 159.363 62.661C159.154 62.1623 159.099 61.6133 159.204 61.0834C159.31 60.5535 159.571 60.0665 159.955 59.6841C160.339 59.3016 160.828 59.0408 161.362 58.9346C161.895 58.8285 162.448 58.8818 162.951 59.0877C163.453 59.2937 163.883 59.6431 164.186 60.0917C164.489 60.5404 164.651 61.0682 164.652 61.6083C164.646 62.3292 164.355 63.0189 163.841 63.5279C163.327 64.0369 162.632 64.3241 161.906 64.3272V64.3432ZM161.906 53.1967C160.231 53.1935 158.593 53.6841 157.199 54.6063C155.805 55.5285 154.718 56.8408 154.076 58.377C153.433 59.9132 153.264 61.6042 153.59 63.2359C153.916 64.8675 154.723 66.3664 155.907 67.5426C157.091 68.7188 158.6 69.5195 160.243 69.8433C161.886 70.167 163.589 69.9993 165.135 69.3612C166.682 68.7232 168.004 67.6436 168.932 66.2592C169.861 64.8748 170.355 63.2478 170.351 61.5844C170.346 59.3614 169.455 57.231 167.872 55.6592C166.289 54.0873 164.144 53.2019 161.906 53.1967ZM161.906 67.6831C160.692 67.6839 159.505 67.327 158.495 66.6576C157.485 65.9882 156.698 65.0364 156.233 63.9226C155.768 62.8087 155.646 61.583 155.883 60.4003C156.12 59.2177 156.704 58.1313 157.563 57.2787C158.421 56.4261 159.515 55.8456 160.706 55.6105C161.897 55.3755 163.131 55.4965 164.252 55.9583C165.374 56.4201 166.332 57.2019 167.006 58.2048C167.68 59.2077 168.039 60.3866 168.039 61.5924C168.038 63.2074 167.391 64.756 166.241 65.898C165.091 67.04 163.532 67.6821 161.906 67.6831ZM100.832 58.8654C101.273 58.8655 101.708 58.9711 102.1 59.1735C102.491 59.3758 102.828 59.6689 103.081 60.0279L103.77 61.0072L108.364 57.6035L107.69 56.6799C106.841 55.5142 105.706 54.5844 104.391 53.9795C103.077 53.3747 101.629 53.115 100.184 53.2254C98.7401 53.3358 97.3486 53.8126 96.1431 54.6101C94.9375 55.4076 93.9583 56.4991 93.2991 57.7801C92.64 59.0611 92.323 60.4887 92.3784 61.9262C92.4339 63.3637 92.8601 64.7631 93.616 65.9902C94.372 67.2173 95.4325 68.2312 96.696 68.9346C97.9594 69.6381 99.3836 70.0077 100.832 70.008C102.13 70.0108 103.411 69.7154 104.575 69.145C105.739 68.5746 106.754 67.7445 107.542 66.7197L108.231 65.832L103.786 62.1975L103.065 63.2006C102.789 63.5801 102.421 63.8829 101.994 64.0802C101.567 64.2775 101.096 64.3627 100.627 64.3274C100.157 64.2922 99.7045 64.1378 99.3123 63.8791C98.9201 63.6203 98.6013 63.2659 98.3866 62.8497C98.1719 62.4335 98.0684 61.9695 98.086 61.5022C98.1036 61.0349 98.2417 60.5799 98.4872 60.1808C98.7326 59.7817 99.0771 59.4519 99.4877 59.223C99.8983 58.9941 100.361 58.8737 100.832 58.8734V58.8654ZM100.832 66.6322C102.031 66.6303 103.191 66.2072 104.107 65.4379L104.937 66.1226C104.054 66.9092 102.96 67.425 101.789 67.6077C100.617 67.7905 99.4171 67.6323 98.334 67.1523C97.2509 66.6723 96.3309 65.8911 95.6852 64.9031C95.0395 63.915 94.6957 62.7623 94.6954 61.5844C94.6936 60.3926 95.0441 59.2265 95.7034 58.2308C96.3627 57.235 97.3019 56.4534 98.4043 55.9828C99.5068 55.5123 100.724 55.3735 101.905 55.5838C103.086 55.7941 104.179 56.3441 105.049 57.1656L104.183 57.8065C103.567 57.2688 102.829 56.8874 102.033 56.695C101.236 56.5027 100.404 56.5051 99.6083 56.7021C98.8127 56.8991 98.0771 57.2848 97.4645 57.8261C96.8519 58.3675 96.3806 59.0483 96.0911 59.8102C95.8015 60.5721 95.7024 61.3923 95.802 62.2007C95.9017 63.009 96.1973 63.7812 96.6635 64.4512C97.1296 65.1212 97.7524 65.6689 98.4785 66.0473C99.2045 66.4258 100.012 66.6238 100.832 66.6242V66.6322ZM51.1296 56.5565C50.1251 56.555 49.1427 56.8495 48.3069 57.4028C47.4711 57.9562 46.8195 58.7435 46.4345 59.6649C46.0496 60.5864 45.9487 61.6006 46.1445 62.5791C46.3404 63.5575 46.8243 64.4563 47.5348 65.1614C48.2454 65.8666 49.1507 66.3464 50.136 66.5402C51.1214 66.7339 52.1425 66.6329 53.07 66.2498C53.9975 65.8668 54.7896 65.219 55.3461 64.3884C55.9026 63.5579 56.1984 62.582 56.196 61.5844C56.1918 60.2501 55.6554 58.9719 54.7044 58.0296C53.7533 57.0872 52.465 56.5576 51.1216 56.5565H51.1296ZM51.1296 64.3272C50.5856 64.3288 50.0533 64.1701 49.6002 63.8711C49.1471 63.5722 48.7934 63.1465 48.5839 62.6479C48.3744 62.1492 48.3186 61.6001 48.4235 61.0699C48.5283 60.5398 48.7892 60.0524 49.173 59.6695C49.5568 59.2867 50.0464 59.0255 50.5797 58.919C51.1131 58.8125 51.6662 58.8656 52.1692 59.0714C52.6722 59.2773 53.1024 59.6267 53.4053 60.0754C53.7083 60.5242 53.8704 61.0521 53.8712 61.5924C53.8702 62.3167 53.5803 63.0111 53.065 63.5236C52.5496 64.0362 51.8509 64.3251 51.1216 64.3272H51.1296ZM51.1296 53.1807C49.4556 53.1784 47.8185 53.6692 46.4254 54.5912C45.0323 55.5132 43.9459 56.8248 43.3037 58.3602C42.6614 59.8955 42.4921 61.5856 42.8172 63.2165C43.1424 64.8475 43.9473 66.346 45.1302 67.5224C46.313 68.6989 47.8207 69.5005 49.4624 69.8257C51.1041 70.1509 52.806 69.9852 54.3528 69.3495C55.8997 68.7138 57.2219 67.6367 58.1522 66.2545C59.0825 64.8722 59.579 63.247 59.579 61.5844C59.5727 59.3597 58.6792 57.2281 57.0941 55.6561C55.5091 54.0841 53.3616 53.1998 51.1216 53.1967L51.1296 53.1807ZM51.1296 67.6672C49.9155 67.668 48.7285 67.3111 47.7187 66.6417C46.709 65.9723 45.9218 65.0205 45.4568 63.9067C44.9919 62.7928 44.87 61.567 45.1067 60.3844C45.3433 59.2018 45.9278 58.1154 46.7863 57.2628C47.6448 56.4102 48.7386 55.8297 49.9294 55.5946C51.1201 55.3596 52.3543 55.4806 53.4758 55.9424C54.5973 56.4042 55.5557 57.186 56.2297 58.1889C56.9037 59.1918 57.263 60.3707 57.2622 61.5764C57.2638 62.3781 57.1061 63.1723 56.7982 63.9134C56.4903 64.6545 56.0381 65.3279 55.4677 65.8952C54.8973 66.4625 54.2198 66.9124 53.474 67.2192C52.7282 67.526 51.9288 67.6837 51.1216 67.6831L51.1296 67.6672Z" fill="#FFB000"/>
<path d="M189.188 39.0525H158.349C162.165 35.633 164.518 29.2954 161.668 26.2022C159.904 24.2874 156.22 23.5191 152.922 25.6608L152.08 24.3511H146.5C141.137 35.4976 130.331 41.7596 126.8 36.4451C126.768 36.3893 126.74 36.3376 126.704 36.2818C132.011 36.5764 140.372 31.9785 136.115 25.9753C134.031 23.0334 125.906 23.0454 122.062 27.3447C120.412 29.1051 119.357 31.3333 119.044 33.7182C117.701 33.0072 116.442 32.1486 115.292 31.1584C116.625 27.906 117.292 24.4228 117.256 20.9116C117.256 9.88057 106.558 2.17755 96.317 2.17755C96.2375 9.93196 98.7526 17.4931 103.468 23.6744L104.001 24.3551H101.868C98.75 26.0549 96.7419 29.3989 96.337 32.715C94.1405 34.4825 89.7955 37.1576 88.7855 37.0701C87.3906 36.9586 88.8215 34.0645 88.8215 34.0645L93.4751 24.367H86.7412L84.3363 29.3591C84.2717 29.4499 84.2229 29.5508 84.192 29.6576C82.2199 33.8137 78.0032 37.2213 76.6845 37.1059C75.2896 36.9904 76.7246 34.1083 76.7246 34.1083L81.3662 24.3949H74.6202L70.612 32.7189C68.0106 35.1075 64.1306 38.2922 62.5754 37.6553C61.2286 37.1059 62.8079 33.961 62.8079 33.961L78.2678 0C47.4041 0 50.9915 39.0525 28.9661 39.0525H4.80832C3.52893 39.0525 2.30194 39.5573 1.39728 40.4558C0.492611 41.3543 -0.015625 42.5729 -0.015625 43.8435C-0.015625 45.1142 0.492611 46.3328 1.39728 47.2313C2.30194 48.1298 3.52893 48.6346 4.80832 48.6346H189.188C190.468 48.6346 191.695 48.1298 192.6 47.2313C193.504 46.3328 194.012 45.1142 194.012 43.8435C194.012 42.5729 193.504 41.3543 192.6 40.4558C191.695 39.5573 190.468 39.0525 189.188 39.0525ZM151.018 30.2946C152.421 27.6314 155.363 25.8002 156.589 27.297C159.263 30.5732 153.098 39.582 151.118 38.0812C150.08 37.3646 151.663 34.1521 151.663 34.1521H149.186L151.018 30.2946ZM133.702 27.4721C135.374 29.3631 130.772 33.8654 126.03 34.5661C125.056 29.7611 131.598 25.1154 133.69 27.4721H133.702ZM102.923 6.07484C108.157 6.84713 114.547 11.867 114.547 21.2022C114.557 23.9392 114.117 26.6595 113.244 29.2556C107.861 23.7659 102.899 14.8806 102.923 6.07484ZM106.738 27.3965C108.398 29.045 110.211 30.5338 112.154 31.8432C109.372 37.3089 104.911 39.5103 102.935 37.5279C100.466 35.0955 103.323 29.5462 106.738 27.3965ZM2.3232 43.8416C2.32424 43.1862 2.58602 42.5578 3.0515 42.0932C3.51698 41.6287 4.14845 41.3657 4.80832 41.3615H28.7377C56.7674 41.3615 56.2504 10.836 69.8825 2.99761L56.5149 32.6871C56.5149 32.6871 54.0699 38.4236 57.4849 40.5056C60.9 42.5876 65.7179 39.4546 69.2372 36.4212C68.8684 38.1051 68.7842 40.0955 70.119 40.9514C72.6321 42.5438 77.5543 40.0756 81.2419 36.9705C80.9854 38.5032 81.0575 40.1553 82.24 40.8997C85.1981 42.7986 92.5412 38.0573 96.3491 35.1672C96.4507 36.1314 96.749 37.065 97.2259 37.911C97.7028 38.7569 98.3482 39.4975 99.1228 40.0876C103.339 43.2325 110.346 40.418 114.322 33.2086C115.839 34.0789 117.428 34.818 119.072 35.418C119.209 36.767 119.802 38.0299 120.755 39.0008C124.96 43.2404 134.504 42.0621 141.775 34.1202L135.907 46.3336H4.80832C4.14636 46.3294 3.51308 46.0647 3.04726 45.5976C2.58144 45.1305 2.32106 44.499 2.3232 43.8416ZM189.188 46.3177H143.426L148.108 36.4013C148.3 37.7309 148.745 39.6218 150.625 40.6807C151.488 41.176 152.48 41.4073 153.475 41.3455H153.443H189.188C189.525 41.3322 189.86 41.3863 190.174 41.5049C190.489 41.6234 190.776 41.8037 191.019 42.0352C191.261 42.2666 191.454 42.5443 191.586 42.8517C191.718 43.159 191.786 43.4896 191.786 43.8236C191.786 44.1577 191.718 44.4883 191.586 44.7956C191.454 45.103 191.261 45.3807 191.019 45.6121C190.776 45.8435 190.489 46.0239 190.174 46.1424C189.86 46.2609 189.525 46.3151 189.188 46.3018V46.3177Z" fill="#283138"/>
</g>
<defs>
<clipPath id="clip0">
<rect width="194" height="70" fill="white"/>
</clipPath>
</defs>
</svg>
