<svg width="22" height="22" viewBox="0 0 22 22" fill="none" xmlns="http://www.w3.org/2000/svg">
<path d="M20.0667 2.62109H1.93386C1.63622 2.62109 1.35757 2.69427 1.10547 2.81488L10.9573 12.6667L13.1654 10.5446C13.1654 10.5446 13.1656 10.5444 13.1656 10.5443C13.1657 10.5442 13.1659 10.5441 13.1659 10.5441L20.8954 2.81505C20.6432 2.69436 20.3644 2.62109 20.0667 2.62109Z" fill="#FFB000"/>
<path d="M21.8061 3.72705L14.5322 11.0005L21.8058 18.2742C21.9265 18.0221 21.9996 17.7434 21.9996 17.4458V4.55514C21.9996 4.25767 21.9266 3.97906 21.8061 3.72705Z" fill="white"/>
<path d="M0.193789 3.72656C0.0731758 3.97866 0 4.25731 0 4.55496V17.4456C0 17.7431 0.0730898 18.0218 0.193617 18.2738L7.4675 11.0003L0.193789 3.72656Z" fill="white"/>
<path d="M13.6208 11.9117L11.4124 14.0341C11.2865 14.16 11.1215 14.2229 10.9567 14.2229C10.7918 14.2229 10.6268 14.16 10.501 14.0341L8.3785 11.9116L1.10449 19.1852C1.35663 19.3059 1.63546 19.3791 1.93319 19.3791H20.066C20.3636 19.3791 20.6423 19.3059 20.8944 19.1853L13.6208 11.9117Z" fill="white"/>
</svg>
