<svg width="22" height="22" viewBox="0 0 22 22" fill="none" xmlns="http://www.w3.org/2000/svg">
<g clip-path="url(#clip0)">
<path d="M11.7333 5.86523C11.3285 5.86523 11 6.19377 11 6.59857C11 7.00337 11.3285 7.3319 11.7333 7.3319C13.3511 7.3319 14.6667 8.6475 14.6667 10.2652C14.6667 10.67 14.9952 10.9986 15.4 10.9986C15.8048 10.9986 16.1333 10.67 16.1333 10.2652C16.1333 7.83937 14.1592 5.86523 11.7333 5.86523Z" fill="#FFB000"/>
<path d="M11.7333 2.93262C11.3285 2.93262 11 3.26115 11 3.66595C11 4.07075 11.3285 4.39928 11.7333 4.39928C14.9688 4.39928 17.6 7.03048 17.6 10.2659C17.6 10.6707 17.9285 10.9993 18.3333 10.9993C18.7381 10.9993 19.0667 10.6707 19.0667 10.2659C19.0667 6.22235 15.7769 2.93262 11.7333 2.93262Z" fill="#FFB000"/>
<path d="M11.7333 0C11.3285 0 11 0.328533 11 0.733333C11 1.13813 11.3285 1.46667 11.7333 1.46667C16.5865 1.46667 20.5333 5.41347 20.5333 10.2667C20.5333 10.6715 20.8619 11 21.2667 11C21.6715 11 22 10.6715 22 10.2667C22 4.60533 17.3932 0 11.7333 0Z" fill="#FFB000"/>
<path d="M19.8 16.1383C17.6704 16.1383 15.642 15.6749 13.772 14.7611C13.596 14.6731 13.3936 14.6629 13.2103 14.7274C13.0255 14.7919 12.8744 14.9269 12.7893 15.1014L11.6365 17.4877C8.65333 15.823 6.18347 13.3546 4.52027 10.3714L6.90507 9.21568C7.08107 9.13061 7.21453 8.97955 7.27907 8.79475C7.34213 8.61141 7.3304 8.40901 7.24387 8.23301C6.33013 6.36301 5.86667 4.33461 5.86667 2.20501C5.86667 1.80021 5.53813 1.47168 5.13333 1.47168H0.733333C0.328533 1.47168 0 1.80021 0 2.20501C0 13.1229 8.88213 22.005 19.8 22.005C20.2048 22.005 20.5333 21.6765 20.5333 21.2717V16.8717C20.5333 16.4669 20.2048 16.1383 19.8 16.1383Z" fill="white"/>
</g>
<defs>
<clipPath id="clip0">
<rect width="22" height="22" fill="white"/>
</clipPath>
</defs>
</svg>
