<svg width="24" height="24" viewBox="0 0 24 24" fill="none" xmlns="http://www.w3.org/2000/svg">
<path d="M12.8 6.4C12.3584 6.4 12 6.7584 12 7.2C12 7.6416 12.3584 8 12.8 8C14.5648 8 16 9.4352 16 11.2C16 11.6416 16.3584 12 16.8 12C17.2416 12 17.6 11.6416 17.6 11.2C17.6 8.5536 15.4464 6.4 12.8 6.4Z" fill="#FFB000"/>
<path d="M12.8 3.2C12.3584 3.2 12 3.5584 12 4C12 4.4416 12.3584 4.8 12.8 4.8C16.3296 4.8 19.2 7.6704 19.2 11.2C19.2 11.6416 19.5584 12 20 12C20.4416 12 20.8 11.6416 20.8 11.2C20.8 6.7888 17.2112 3.2 12.8 3.2Z" fill="#FFB000"/>
<path d="M12.8 0C12.3584 0 12 0.3584 12 0.8C12 1.2416 12.3584 1.6 12.8 1.6C18.0944 1.6 22.4 5.9056 22.4 11.2C22.4 11.6416 22.7584 12 23.2 12C23.6416 12 24 11.6416 24 11.2C24 5.024 18.9744 0 12.8 0Z" fill="#FFB000"/>
<path d="M21.6 17.6C19.2768 17.6 17.064 17.0944 15.024 16.0976C14.832 16.0016 14.6112 15.9904 14.4112 16.0608C14.2096 16.1312 14.0448 16.2784 13.952 16.4688L12.6944 19.072C9.44 17.256 6.7456 14.5632 4.9312 11.3088L7.5328 10.048C7.7248 9.9552 7.8704 9.7904 7.9408 9.5888C8.0096 9.3888 7.9968 9.168 7.9024 8.976C6.9056 6.936 6.4 4.7232 6.4 2.4C6.4 1.9584 6.0416 1.6 5.6 1.6H0.8C0.3584 1.6 0 1.9584 0 2.4C0 14.3104 9.6896 24 21.6 24C22.0416 24 22.4 23.6416 22.4 23.2V18.4C22.4 17.9584 22.0416 17.6 21.6 17.6Z" fill="#283138"/>
</svg>
