<svg width="50" height="50" viewBox="0 0 50 50" fill="none" xmlns="http://www.w3.org/2000/svg">
<path d="M34.3751 13.2812C31.4954 13.2812 28.9009 14.4852 27.0532 16.4109C27.7048 16.9836 28.1251 17.8141 28.1251 18.75V31.432C29.8493 32.782 32.0157 33.5938 34.3751 33.5938C39.9845 33.5938 44.5313 29.0469 44.5313 23.4375C44.5313 17.8281 39.9845 13.2812 34.3751 13.2812Z" fill="#F0BC5E"/>
<path d="M4.6875 18.75H25V26.5625H4.6875V18.75Z" fill="#F0BC5E"/>
<path d="M25.7812 46.0938H19.5312V35.1562H25.7812V46.0938Z" fill="#F0BC5E"/>
<path d="M17.9688 46.0938H11.7188V41.4062H17.9688V46.0938Z" fill="#F0BC5E"/>
<path d="M10.1562 46.0938H3.90625V41.4062H10.1562V46.0938Z" fill="#F0BC5E"/>
<path d="M17.9688 39.8438H11.7188V35.1562H17.9688V39.8438Z" fill="#F0BC5E"/>
<path d="M10.1562 39.8438H3.90625V35.1562H10.1562V39.8438Z" fill="#F0BC5E"/>
<path d="M17.9688 33.5938H11.7188V28.9062H17.9688V33.5938Z" fill="#F0BC5E"/>
<path d="M25.7812 33.5938H19.5312V28.9062H25.7812V33.5938Z" fill="#F0BC5E"/>
<path d="M10.1562 33.5938H3.90625V28.9062H10.1562V33.5938Z" fill="#F0BC5E"/>
<path d="M3.90625 27.3438H25.7812V17.9688H3.90625V27.3438ZM5.46875 19.5312H24.2188V25.7812H5.46875V19.5312Z" fill="black"/>
<path d="M34.375 17.9688C35.6672 17.9688 36.7188 19.0203 36.7188 20.3125H38.2812C38.2812 18.4266 36.9367 16.8484 35.1562 16.4852V14.8438H33.5938V16.4062H30.4688V20.3125C30.4688 22.4664 32.2211 24.2188 34.375 24.2188C35.6672 24.2188 36.7188 25.2703 36.7188 26.5625V28.9062H34.375C33.0828 28.9062 32.0312 27.8547 32.0312 26.5625H30.4688C30.4688 28.4484 31.8133 30.0266 33.5938 30.3898V32.0312H35.1562V30.4688H38.2812V26.5625C38.2812 24.4086 36.5289 22.6562 34.375 22.6562C33.0828 22.6562 32.0312 21.6047 32.0312 20.3125V17.9688H34.375Z" fill="black"/>
<path d="M41.9773 10.807L43.0422 9.89375C45.4781 7.80703 46.875 4.77031 46.875 1.5625V0.78125H46.0938C44.2898 0.78125 43.3492 1.78438 42.5938 2.59063C41.9047 3.32578 41.3594 3.90625 40.2328 3.90625C39.1063 3.90625 38.5609 3.32578 37.8727 2.59063C37.1164 1.78438 36.1758 0.78125 34.3719 0.78125C32.5687 0.78125 31.6289 1.78438 30.8734 2.59063C30.1852 3.32578 29.6406 3.90625 28.5148 3.90625C27.3891 3.90625 26.8445 3.32578 26.1555 2.59063C25.4008 1.78438 24.4602 0.78125 22.6562 0.78125H21.875V1.5625C21.875 4.77031 23.2719 7.80703 25.7062 9.89297L26.7734 10.8078C25.0664 11.8547 23.5719 13.2305 22.3883 14.8438H4.6875C2.53359 14.8438 0.78125 16.5961 0.78125 18.75V45.3125C0.78125 47.4664 2.53359 49.2188 4.6875 49.2188H25C27.1539 49.2188 28.9062 47.4664 28.9062 45.3125V37.2352C30.6422 37.9258 32.475 38.2812 34.375 38.2812C42.5602 38.2812 49.2188 31.6227 49.2188 23.4375C49.2188 18.3687 46.4094 13.5281 41.9773 10.807ZM23.4813 2.47109C24.0992 2.68125 24.5203 3.13047 25.0164 3.65937C25.7711 4.46563 26.7117 5.46875 28.5148 5.46875C30.318 5.46875 31.2586 4.46563 32.0141 3.65937C32.7023 2.92422 33.2469 2.34375 34.3719 2.34375C35.4984 2.34375 36.0437 2.92422 36.732 3.65937C37.4883 4.46563 38.4289 5.46875 40.2328 5.46875C42.0367 5.46875 42.9773 4.46563 43.7328 3.65937C44.2297 3.13047 44.6508 2.68125 45.2687 2.47109C45.0359 4.88125 43.8836 7.11641 42.0258 8.70781L40.3359 10.1562H28.4141L26.7234 8.70703C24.8664 7.11563 23.7141 4.88047 23.4813 2.47109ZM27.3438 45.3125C27.3438 46.6047 26.2922 47.6562 25 47.6562H4.6875C3.39531 47.6562 2.34375 46.6047 2.34375 45.3125V18.75C2.34375 17.4578 3.39531 16.4062 4.6875 16.4062H25C26.2922 16.4062 27.3438 17.4578 27.3438 18.75V45.3125ZM34.375 36.7188C32.4617 36.7188 30.6273 36.3047 28.9062 35.5234V18.75C28.9062 16.5961 27.1539 14.8438 25 14.8438H24.3867C25.4945 13.5781 26.8273 12.5117 28.3172 11.7188H40.4328C44.8273 14.0578 47.6562 18.6367 47.6562 23.4375C47.6562 30.7609 41.6984 36.7188 34.375 36.7188Z" fill="black"/>
<path d="M41.5563 30.6188C41.2712 30.9039 40.9688 31.1727 40.6587 31.4172L41.6259 32.6437C41.9845 32.3617 42.3329 32.0516 42.6603 31.7234C42.904 31.4805 43.1329 31.2289 43.3509 30.9703L42.1563 29.9648C41.9681 30.1898 41.7688 30.4078 41.5563 30.6188Z" fill="black"/>
<path d="M42.6688 15.1586L42.5742 15.0648L41.4844 16.1851L41.5563 16.2562C45.0438 19.7429 45.5297 25.2031 42.7117 29.2406L43.9938 30.1351C47.2453 25.475 46.6852 19.1742 42.6688 15.1586Z" fill="black"/>
<path d="M21.0938 22.6562H22.6562V24.2188H21.0938V22.6562Z" fill="black"/>
<path d="M17.9688 22.6562H19.5312V24.2188H17.9688V22.6562Z" fill="black"/>
<path d="M14.8438 22.6562H16.4062V24.2188H14.8438V22.6562Z" fill="black"/>
</svg>
