<svg width="50" height="50" viewBox="0 0 50 50" fill="none" xmlns="http://www.w3.org/2000/svg">
<g clip-path="url(#clip0)">
<path d="M34.6776 0.00976562H7.2583V50.0096H42.7421V8.88071L34.6776 0.00976562Z" fill="#F9BA48"/>
<path d="M42.7419 8.88075H34.6774V0.00976562H33.0645V10.4937H42.7419V8.88075Z" fill="#333333"/>
<path d="M45.9679 16.9354H44.3549H18.3042L12.2559 20.9677L18.3042 24.9999H44.3549H45.9679C48.1913 24.9999 50.0002 23.1911 50.0002 20.9677C50.0002 18.7443 48.1912 16.9354 45.9679 16.9354ZM17.7421 19.2483V22.6861L15.1638 20.9677L17.7421 19.2483ZM44.3549 23.3869H19.355V21.774H41.9355V20.1611H19.355V18.5482H44.3549V23.3869ZM45.9679 23.3869V18.5483C47.3017 18.5483 48.3873 19.6339 48.3873 20.9677C48.3873 22.3015 47.3017 23.3869 45.9679 23.3869Z" fill="#333333"/>
<path d="M0 41.9356H38.7095V30.6451H0V41.9356ZM1.61293 32.2581H3.22586V34.6775H4.83879V32.2581H6.45172V34.6775H8.06465V32.2581H9.67758V36.2905H11.2905V32.2581H12.9034V34.6775H14.5164V32.2581H16.1293V34.6775H17.7422V32.2581H19.3552V36.2905H20.9681V32.2581H22.581V34.6775H24.194V32.2581H25.8069V34.6775H27.4198V32.2581H29.0327V36.2905H30.6457V32.2581H37.0972V36.2905V40.3229H1.61293V32.2581Z" fill="#333333"/>
<path d="M34.6772 33.8708C33.3434 33.8708 32.2578 34.9564 32.2578 36.2903C32.2578 37.6242 33.3434 38.7098 34.6772 38.7098C36.011 38.7098 37.0966 37.6242 37.0966 36.2903C37.0966 34.9564 36.011 33.8708 34.6772 33.8708ZM34.6772 37.0968C34.2328 37.0968 33.8707 36.7356 33.8707 36.2903C33.8707 35.8451 34.2328 35.4838 34.6772 35.4838C35.1216 35.4838 35.4837 35.8451 35.4837 36.2903C35.4837 36.7354 35.1216 37.0968 34.6772 37.0968Z" fill="#333333"/>
<path d="M30.6453 4.03198H11.2905V5.64491H30.6453V4.03198Z" fill="#333333"/>
<path d="M30.6453 8.06458H11.2905V9.67751H30.6453V8.06458Z" fill="#333333"/>
<path d="M30.6453 12.0972H11.2905V13.7101H30.6453V12.0972Z" fill="#333333"/>
</g>
<defs>
<clipPath id="clip0">
<rect width="50" height="50" fill="white"/>
</clipPath>
</defs>
</svg>
