<svg width="50" height="50" viewBox="0 0 50 50" fill="none" xmlns="http://www.w3.org/2000/svg">
<path d="M28.2256 5.52698C24.6917 5.52698 21.3845 7.26649 19.3821 10.1786L13.7095 18.4302H42.7417L37.0691 10.1786C35.0667 7.26649 31.7595 5.52698 28.2256 5.52698Z" fill="#F9BA48"/>
<path d="M42.7419 35.3657C41.1435 35.3657 39.6694 35.8907 38.4694 36.7698L35.704 33.7528H39.2613L44.9065 19.2367H47.5806V17.6238H11.2815L8.57177 11.9786H0V13.5915H7.55726L17.2347 33.7528H19.104L16.4766 43.3206C16.246 44.1585 16.129 45.0254 16.129 45.894C16.129 48.0924 17.9185 49.8819 20.1169 49.8819C21.4169 49.8819 22.6387 49.2464 23.3847 48.1811L33.4847 33.7528H33.5169L37.2806 37.8585C36.1653 39.1351 35.4839 40.7996 35.4839 42.6238C35.4839 46.6262 38.7395 49.8819 42.7419 49.8819C46.7444 49.8819 50 46.6262 50 42.6238C50 38.6214 46.7444 35.3657 42.7419 35.3657ZM12.0556 19.2367H43.1766L38.1589 32.1399H34.2258H32.2581H18.2492L12.0556 19.2367ZM22.0629 47.2561C21.6194 47.8899 20.8919 48.269 20.1169 48.269C18.8073 48.269 17.7419 47.2036 17.7419 45.894C17.7419 45.1698 17.8395 44.4472 18.0306 43.748L20.7758 33.7528H31.5161L22.0629 47.2561ZM42.7419 48.269C39.6298 48.269 37.0968 45.7359 37.0968 42.6238C37.0968 41.2698 37.5766 40.0262 38.3742 39.0528L40.0403 40.8706C39.7113 41.3762 39.5161 41.977 39.5161 42.6238C39.5161 44.4028 40.9629 45.8496 42.7419 45.8496C44.521 45.8496 45.9677 44.4028 45.9677 42.6238C45.9677 40.8448 44.521 39.398 42.7419 39.398C42.1952 39.398 41.6879 39.5472 41.2363 39.7883L39.5629 37.9633C40.4694 37.3424 41.5637 36.9786 42.7419 36.9786C45.854 36.9786 48.3871 39.5117 48.3871 42.6238C48.3871 45.7359 45.854 48.269 42.7419 48.269ZM42.1476 43.169L43.3371 42.0786L42.3952 41.0504C42.5065 41.0262 42.6226 41.0109 42.7419 41.0109C43.6315 41.0109 44.3548 41.7343 44.3548 42.6238C44.3548 43.5133 43.6315 44.2367 42.7419 44.2367C41.8524 44.2367 41.129 43.5133 41.129 42.6238C41.129 42.4561 41.1621 42.298 41.2097 42.1456L42.1476 43.169Z" fill="#333333"/>
<path d="M17.7418 20.8496H16.1289V22.4625H17.7418V20.8496Z" fill="#333333"/>
<path d="M38.7098 20.8496H19.355V22.4625H38.7098V20.8496Z" fill="#333333"/>
<path d="M36.9991 11.6036L40.6563 7.94639L38.6402 5.93026L43.312 1.25849L42.1716 0.118164L37.4999 4.78994L35.4837 2.77381L31.8265 6.43106C31.0652 7.19235 30.645 8.20526 30.645 9.28268V12.7851H34.1474C35.2249 12.7851 36.2378 12.3649 36.9991 11.6036ZM32.2579 9.28268C32.2579 8.6359 32.5095 8.02784 32.9668 7.57139L35.4837 5.05445L38.3757 7.94639L35.8587 10.4633C35.4015 10.9206 34.7942 11.1722 34.1474 11.1722H32.2579V9.28268Z" fill="#333333"/>
</svg>
