<svg width="50" height="50" viewBox="0 0 50 50" fill="none" xmlns="http://www.w3.org/2000/svg">
<path d="M28.215 33.0115C34.4288 33.0115 39.4661 27.9742 39.4661 21.7604C39.4661 15.5466 34.4288 10.5093 28.215 10.5093C22.0012 10.5093 16.9639 15.5466 16.9639 21.7604C16.9639 27.9742 22.0012 33.0115 28.215 33.0115Z" fill="#F9BA48"/>
<path d="M44.9074 3.27649C39.2659 3.27649 33.7505 2.21405 28.5138 0.11984L28.2148 0L27.9167 0.119669C22.6794 2.21405 17.1638 3.27632 11.5222 3.27632H9.73079V20.1531H5.71262C4.38341 20.1531 3.30176 21.2347 3.30176 22.5639V36.2261C3.30176 37.5553 4.38341 38.6371 5.71262 38.6371H12.9454C12.9469 38.6371 12.9478 38.6371 12.9493 38.6371C14.8476 41.6532 17.4779 44.1444 20.6138 45.8539L28.2147 50L35.8155 45.8539C42.5292 42.1925 46.6985 35.1677 46.6985 27.5211V3.27649H44.9074ZM4.90889 36.2261V22.5639C4.90889 22.1211 5.26892 21.7604 5.71245 21.7604H12.9452C13.3887 21.7604 13.7488 22.1213 13.7488 22.5639V36.2261C13.7488 36.6689 13.3887 37.0298 12.9452 37.0298H5.71262C5.26892 37.0298 4.90889 36.6689 4.90889 36.2261ZM15.3564 24.1642C18.0399 24.0188 20.1783 21.7893 20.1783 19.0707V14.9295C20.1783 13.8221 21.0793 12.9203 22.1875 12.9203C23.2957 12.9203 24.1967 13.8219 24.1967 14.9295V19.9876C24.1967 21.4084 25.3524 22.5641 26.7731 22.5641H32.6647C34.1988 22.5641 35.4478 23.8122 35.4478 25.3472V34.2467C35.4478 35.7817 34.199 37.0298 32.6647 37.0298H20.8237C20.1855 37.0298 19.594 36.7123 19.2397 36.182C18.5871 35.2032 17.4949 34.6189 16.3184 34.6189H15.3564V24.1642ZM45.0914 27.5209C45.0914 34.5787 41.2428 41.0632 35.0466 44.4426L28.2148 48.1691L21.3831 44.4426C18.5871 42.9172 16.2245 40.7209 14.487 38.064C14.9748 37.654 15.2956 37.0595 15.3405 36.3843C16.9622 39.1818 19.2976 41.4738 22.153 43.0313L28.215 46.3383L34.277 43.0313C39.9564 39.9339 43.4845 33.9909 43.4845 27.5216V15.3312H41.8771V27.5218C41.8771 33.402 38.6706 38.8051 33.5079 41.6203L28.215 44.5071L22.9221 41.6203C20.6575 40.385 18.7552 38.6395 17.3255 36.5275C17.5497 36.6681 17.7507 36.8465 17.9026 37.074C18.5551 38.0528 19.6474 38.6371 20.8238 38.6371H32.6649C35.0862 38.6371 37.0552 36.6674 37.0552 34.2467V25.3472C37.0552 22.9265 35.0864 20.9568 32.6649 20.9568H26.7733C26.2389 20.9568 25.8041 20.522 25.8041 19.9876V14.9295C25.8041 12.9356 24.1816 11.313 22.1877 11.313C20.1938 11.313 18.5712 12.9356 18.5712 14.9295V19.0699C18.5712 20.9023 17.1496 22.3921 15.3533 22.536C15.3453 21.8377 15.0358 21.2155 14.5529 20.78V8.00599C19.2205 7.71916 23.8118 6.76524 28.2148 5.16582C32.6181 6.76506 37.2085 7.71899 41.8768 8.00599V8.90213H43.4841V6.47669L42.7174 6.44138C37.8521 6.21884 33.0664 5.24794 28.4936 3.55629L28.2147 3.45257L27.9357 3.55544C23.3621 5.24709 18.5763 6.21798 13.7119 6.44052L12.9452 6.47669V20.1532H11.3379V4.88379H11.5219C17.2624 4.88379 22.8759 3.82289 28.2145 1.73023C33.5531 3.82289 39.1666 4.88379 44.9071 4.88379H45.0911V27.5209H45.0914Z" fill="#333333"/>
<path d="M43.4843 12.1166H41.877V13.7239H43.4843V12.1166Z" fill="#333333"/>
<path d="M12.1416 33.8152H6.51611V35.4225H12.1416V33.8152Z" fill="#333333"/>
</svg>
