<svg width="50" height="50" viewBox="0 0 50 50" fill="none" xmlns="http://www.w3.org/2000/svg">
<path d="M24.9998 36.2903C37.4998 36.2903 43.7917 37.2177 46.774 37.9242V27.4193C46.774 19.8363 42.7683 12.75 36.2901 8.81045V7.25803C36.2901 6.36852 35.5667 5.64513 34.6772 5.64513H32.2578C31.6603 5.64513 31.1369 5.97174 30.8595 6.45642C30.224 6.27497 29.6046 6.12819 28.9925 6.01287C28.7845 4.88787 27.7974 4.03223 26.6127 4.03223H23.3869C22.203 4.03223 21.2143 4.88707 21.007 6.01287C20.3949 6.129 19.7764 6.27577 19.1409 6.45642C18.8619 5.97255 18.3393 5.64513 17.7417 5.64513H15.3224C14.4328 5.64513 13.7095 6.36852 13.7095 7.25803V8.81045C7.23042 12.7508 3.22559 19.8371 3.22559 27.4193V37.9242C6.20784 37.2177 12.4998 36.2903 24.9998 36.2903Z" fill="#F9BA48"/>
<path d="M17.7418 24.1935H16.1289V33.8709H17.7418V24.1935Z" fill="#333333"/>
<path d="M17.7418 20.9677H16.1289V22.5806H17.7418V20.9677Z" fill="#333333"/>
<path d="M48.1685 30.3645L46.7742 30.0161V31.679L47.7766 31.9306C48.1355 32.0185 48.3871 32.3403 48.3871 32.7113V37.5346C46.8306 37.0419 43.5339 36.2935 37.0968 35.85V23.3871C37.0968 21.8685 36.8032 20.4201 36.2903 19.0798V7.25803C36.2903 6.36852 35.5669 5.64513 34.6774 5.64513H32.2581C31.3685 5.64513 30.6452 6.36852 30.6452 7.25803V12.6959C30.1298 12.4226 29.5887 12.1935 29.0323 11.9959V6.45158C29.0323 5.11771 27.9468 4.03223 26.6129 4.03223H23.3871C22.0532 4.03223 20.9677 5.11771 20.9677 6.45158V11.9959C20.4113 12.1935 19.8702 12.4226 19.3548 12.6959V7.25803C19.3548 6.36852 18.6315 5.64513 17.7419 5.64513H15.3226C14.4331 5.64513 13.7097 6.36852 13.7097 7.25803V19.0798C13.1968 20.4201 12.9032 21.8685 12.9032 23.3871V35.85C6.46613 36.2935 3.16935 37.0419 1.6129 37.5346V32.7113C1.6129 32.3403 1.86452 32.0193 2.22419 31.929L3.22581 31.6782V30.0161L1.83226 30.3645C0.754032 30.633 0 31.5984 0 32.7113V39.1201L5.80968 43.3459C8.16936 45.0613 10.9573 45.9677 13.8734 45.9677H36.1266C39.0427 45.9677 41.8306 45.0613 44.1903 43.3459L50 39.1201V32.7113C50 31.5984 49.246 30.633 48.1685 30.3645ZM32.2581 13.7096V7.25803H34.6774V16.1596C33.9815 15.2298 33.1573 14.4056 32.2274 13.7096H32.2581ZM22.5806 6.45158C22.5806 6.00642 22.9419 5.64513 23.3871 5.64513H26.6129C27.0581 5.64513 27.4194 6.00642 27.4194 6.45158V11.5338C26.6371 11.3742 25.8282 11.2903 25 11.2903C24.1718 11.2903 23.3629 11.375 22.5806 11.5338V6.45158ZM15.3226 7.25803H17.7419V13.7322C16.825 14.4234 16.0113 15.2395 15.3226 16.1596V7.25803ZM14.5161 23.3871C14.5161 17.6064 19.2194 12.9032 25 12.9032C30.7806 12.9032 35.4839 17.6064 35.4839 23.3871V35.75C32.5855 35.5871 29.1315 35.4838 25 35.4838C20.8685 35.4838 17.4145 35.5871 14.5161 35.75V23.3871ZM43.2419 42.0419C41.1597 43.5548 38.6992 44.3548 36.1266 44.3548H13.8734C11.3008 44.3548 8.84032 43.5548 6.75806 42.0419L2.50484 38.9484C4.87097 38.2774 11.025 37.0967 25 37.0967C38.9742 37.0967 45.1274 38.2782 47.4944 38.9484L43.2419 42.0419Z" fill="#333333"/>
</svg>
