<svg width="26" height="26" viewBox="0 0 26 26" fill="none" xmlns="http://www.w3.org/2000/svg">
<circle cx="12.5" cy="13.5" r="9.5" fill="white"/>
<path d="M14.6322 8.05029H11.3145V13.0539H14.6322C16.0117 13.0539 17.134 11.9316 17.134 10.5521C17.134 9.1526 15.9996 8.05029 14.6322 8.05029Z" fill="#283138"/>
<path d="M13 0C5.83177 0 0 5.83177 0 13C0 20.1682 5.83177 26 13 26C20.1682 26 26 20.1682 26 13C26 5.83177 20.1682 0 13 0ZM14.6318 14.5776H11.3141V16.3177H14.6318C15.0525 16.3177 15.3935 16.6587 15.3935 17.0794C15.3935 17.5001 15.0525 17.8411 14.6318 17.8411H11.3141V19.5271C11.3141 19.9477 10.973 20.2888 10.5523 20.2888C10.1317 20.2888 9.79063 19.9477 9.79063 19.5271V17.8411H8.92059C8.49992 17.8411 8.15887 17.5001 8.15887 17.0794C8.15887 16.6587 8.49992 16.3177 8.92059 16.3177H9.79063V14.5776H8.92059C8.49992 14.5776 8.15887 14.2365 8.15887 13.8159C8.15887 13.3952 8.49992 13.0541 8.92059 13.0541H9.79063V7.28879C9.79063 6.86811 10.1317 6.52707 10.5523 6.52707H14.6318C16.8045 6.52707 18.6571 8.27795 18.6571 10.5523C18.657 12.7719 16.8514 14.5776 14.6318 14.5776Z" fill="#283138"/>
</svg>
