<svg width="50" height="50" viewBox="0 0 50 50" fill="none" xmlns="http://www.w3.org/2000/svg">
<path d="M25.0001 5.01416C20.9517 5.01416 17.6587 8.3072 17.6587 12.3556C17.6587 14.8019 18.8978 17.0965 20.9216 18.453V20.5127H29.0787V18.453C31.1025 17.0965 32.3416 14.8019 32.3416 12.3556C32.3416 8.3072 29.0485 5.01416 25.0001 5.01416ZM25.0001 13.987C24.0988 13.987 23.3687 13.2569 23.3687 12.3556C23.3687 11.4542 24.0988 10.7242 25.0001 10.7242C25.9015 10.7242 26.6316 11.4542 26.6316 12.3556C26.6316 13.2569 25.9015 13.987 25.0001 13.987Z" fill="#F9BA48"/>
<path d="M48.9616 24.7705L41.4032 30.8182L34.3293 23.0362L50 9.71483L48.9436 8.47249L32.7542 22.232C31.7345 22.3682 30.763 22.6879 29.8747 23.1757C29.8568 22.9898 29.8192 22.8103 29.7548 22.6423C30.3266 22.2801 30.71 21.6471 30.71 20.9211C30.71 19.7962 29.7956 18.8818 28.6707 18.8818H25.8157V14.6532C26.7628 14.3155 27.4471 13.4182 27.4471 12.3561C27.4471 11.0069 26.3492 9.90897 25 9.90897C23.6508 9.90897 22.5529 11.0069 22.5529 12.3561C22.5529 13.4182 23.2372 14.3155 24.1843 14.6532V18.8818H21.3293C20.2044 18.8818 19.29 19.7962 19.29 20.9211C19.29 21.6471 19.6734 22.2801 20.2452 22.6423C20.1816 22.8078 20.1441 22.984 20.1261 23.1668C19.2362 22.6798 18.263 22.3625 17.2426 22.2295L1.05635 8.47168L0 9.71401L15.6707 23.0354L8.59599 30.8173L1.03759 24.7696L0.0179457 26.0438L8.1343 32.5369C8.56255 34.245 9.51449 35.7818 10.8653 36.9099L12.3532 38.1547C12.062 38.9957 12.1656 39.9476 12.7162 40.6712C13.1681 41.265 13.8206 41.6362 14.554 41.7185C14.6257 41.7267 14.6975 41.7316 14.7693 41.734C14.7693 41.7553 14.7693 41.7765 14.7693 41.7968C14.7816 42.6166 15.16 43.3785 15.8085 43.8892C16.2621 44.2464 16.811 44.4292 17.3698 44.4414C17.369 44.4659 17.369 44.4912 17.3698 44.5156C17.382 45.3354 17.7605 46.0973 18.4074 46.6071C18.8618 46.9644 19.4107 47.1479 19.9695 47.1602C19.9695 47.1855 19.9695 47.2107 19.9695 47.236C19.9825 48.055 20.3602 48.8169 21.0087 49.3275C21.4777 49.697 22.0504 49.8806 22.6295 49.8806C23.2609 49.8806 23.9004 49.6611 24.4184 49.2272L24.4624 49.1897C24.9372 49.5478 25.4992 49.737 26.067 49.737C26.7318 49.737 27.3982 49.4915 27.9129 49.002C28.4227 48.5167 28.7148 47.8437 28.7409 47.1406C28.758 47.1406 28.7751 47.1455 28.7923 47.1455C29.4579 47.1455 30.1235 46.9 30.6382 46.4113C31.148 45.9252 31.4392 45.2514 31.4662 44.5491C31.4833 44.5491 31.5004 44.554 31.5176 44.554C32.1832 44.554 32.8488 44.3084 33.3643 43.8198C33.8741 43.3345 34.1654 42.6607 34.1915 41.9584C34.2086 41.9584 34.2257 41.9633 34.2437 41.9633C34.9093 41.9633 35.5749 41.7177 36.0896 41.2283C36.6288 40.7152 36.9347 39.9925 36.9282 39.2453C36.9274 39.1074 36.9045 38.972 36.8825 38.8366L39.1494 36.9124C40.5035 35.7793 41.4562 34.2368 41.882 32.523L49.9788 26.0462L48.9616 24.7705ZM25 11.5404C25.4503 11.5404 25.8157 11.9058 25.8157 12.3561C25.8157 12.8064 25.4503 13.1718 25 13.1718C24.5497 13.1718 24.1843 12.8064 24.1843 12.3561C24.1843 11.9058 24.5497 11.5404 25 11.5404ZM23.061 25.4075H26.9569L25.009 27.0365L23.061 25.4075ZM22.145 22.9604H27.855C28.0793 22.9604 28.2629 23.1439 28.2629 23.3682C28.2629 23.5926 28.0793 23.7761 27.855 23.7761H22.145C21.9207 23.7761 21.7371 23.5926 21.7371 23.3682C21.7371 23.1439 21.9207 22.9604 22.145 22.9604ZM21.3293 20.5132H28.6707C28.895 20.5132 29.0786 20.6968 29.0786 20.9211C29.0786 21.1454 28.895 21.329 28.6707 21.329H27.855H22.145H21.3293C21.105 21.329 20.9214 21.1454 20.9214 20.9211C20.9214 20.6968 21.105 20.5132 21.3293 20.5132ZM9.68905 32.0425L13.8704 27.4419L17.1316 23.8544C18.3446 24.0322 19.4727 24.5355 20.4149 25.3235L29.2711 32.7277C29.5036 32.9227 29.6414 33.1984 29.6594 33.5043C29.6765 33.8102 29.5696 34.1006 29.3584 34.3208C28.9733 34.7238 28.3558 34.7646 27.9219 34.4146L23.9118 31.1828C23.5594 30.8981 23.0464 30.956 22.7649 31.3051C22.7633 31.3076 22.7625 31.31 22.7609 31.3125L22.7568 31.3092C22.1442 32.0833 21.2314 32.5279 20.2517 32.5279C18.4873 32.5279 17.0517 31.0792 17.0517 29.2985H15.4203C15.4203 30.9576 16.2515 32.4227 17.5158 33.3004L13.3035 36.8226L11.9119 35.6586C10.8009 34.7303 10.021 33.457 9.68905 32.0425ZM22.0194 48.046C21.7559 47.8388 21.6074 47.5427 21.6026 47.2124C21.5985 46.9081 21.7233 46.6234 21.9411 46.4171C22.0838 46.8518 22.3228 47.2532 22.6646 47.568L23.2136 48.073C22.8261 48.3038 22.3522 48.3079 22.0194 48.046ZM26.7905 47.8209C26.3941 48.201 25.766 48.2051 25.3614 47.8331L23.7691 46.3681C23.548 46.165 23.4257 45.8877 23.4232 45.5867C23.4208 45.2857 23.5399 45.0059 23.756 44.7995C23.9567 44.6086 24.2161 44.5124 24.4771 44.5124C24.7316 44.5124 24.9853 44.6037 25.1852 44.7881L25.3866 44.9732C25.3875 44.9741 25.3875 44.9741 25.3883 44.9749C25.3891 44.9749 25.3891 44.9757 25.3891 44.9757L26.7791 46.2547C26.9985 46.457 27.1209 46.7336 27.1233 47.0346C27.1257 47.3355 27.0083 47.6145 26.7905 47.8209ZM29.5158 45.2294C29.1185 45.6079 28.4904 45.6119 28.0867 45.2408L27.8852 45.0556C27.8844 45.0548 27.8844 45.0548 27.8835 45.054C27.8827 45.054 27.8827 45.0532 27.8827 45.0532L26.4928 43.7741C26.2733 43.5718 26.151 43.2953 26.1485 42.9943C26.1461 42.6933 26.2652 42.4135 26.4813 42.2072C26.8778 41.8295 27.5059 41.823 27.9105 42.1957L29.5027 43.6608C29.7238 43.8639 29.8462 44.1412 29.8486 44.4422C29.851 44.7432 29.7328 45.023 29.5158 45.2294ZM32.2427 42.6362C31.8438 43.0147 31.2174 43.0204 30.8128 42.6485L29.2197 41.1826C28.9994 40.9803 28.8771 40.703 28.8738 40.402C28.8714 40.101 28.9897 39.822 29.2066 39.6156C29.4073 39.4248 29.6667 39.3277 29.9277 39.3277C30.1822 39.3277 30.4359 39.419 30.6358 39.6034L31.5404 40.4354L32.2297 41.0692C32.4499 41.2723 32.5723 41.5489 32.5747 41.8507C32.5763 42.1517 32.4589 42.4315 32.2427 42.6362ZM34.9672 40.0447C34.5708 40.4232 33.9419 40.4281 33.5389 40.0578L33.335 39.8701C33.3341 39.8693 33.3341 39.8685 33.3333 39.8677L32.5943 39.1874L31.945 38.5895C31.7247 38.3872 31.6024 38.1106 31.5999 37.8096C31.5975 37.5078 31.7158 37.2289 31.9319 37.0225C32.1326 36.8316 32.3928 36.7353 32.653 36.7353C32.9075 36.7353 33.1612 36.8259 33.3602 37.0094L34.9542 38.4769C35.1744 38.6792 35.2968 38.9565 35.3 39.2567C35.3025 39.5593 35.1842 39.8383 34.9672 40.0447ZM38.1004 35.6627L36.119 37.3447C36.0978 37.3235 36.0815 37.2974 36.0594 37.277L34.4655 35.8095C33.4312 34.86 31.8251 34.8747 30.8079 35.8405C30.2981 36.3259 30.006 37.0005 29.9807 37.7036C29.298 37.6905 28.6112 37.9304 28.0834 38.4329C27.5736 38.9182 27.2816 39.5928 27.2563 40.2959C26.5735 40.2829 25.8867 40.5219 25.3589 41.0244C24.8491 41.5105 24.5571 42.1851 24.531 42.8883C23.8482 42.8752 23.1622 43.115 22.6336 43.6167C22.49 43.7537 22.3661 43.9071 22.2568 44.0702C22.1988 44.0988 22.1385 44.1192 22.0863 44.1624L20.9418 45.1193C20.941 45.1201 20.9402 45.1201 20.9394 45.1201C20.9369 45.1217 20.9345 45.1241 20.932 45.1258L20.7754 45.2571C20.3708 45.5964 19.8015 45.6258 19.4197 45.3256C19.1562 45.1184 19.0086 44.8223 19.0037 44.492C18.9988 44.1665 19.1375 43.8606 19.3863 43.6534L25.044 38.9231L23.9975 37.671L18.3397 42.4013C18.3381 42.4029 18.3364 42.4046 18.334 42.4062L18.1749 42.54C17.7711 42.8777 17.201 42.9079 16.82 42.6077C16.5565 42.4005 16.4081 42.1044 16.4032 41.774C16.3983 41.4485 16.5378 41.1426 16.7858 40.9355L22.5219 36.1382L21.4753 34.8861L15.7376 39.6825L15.5247 39.8595C15.3036 40.0455 15.0263 40.1246 14.7375 40.0977C14.4504 40.0651 14.1942 39.9183 14.0156 39.6833C13.6746 39.2355 13.7831 38.5487 14.257 38.1531L19.1823 34.0345C19.5274 34.1136 19.8847 34.1585 20.2525 34.1585C21.4565 34.1585 22.5879 33.7099 23.4673 32.9178L26.899 35.6831C27.9977 36.5681 29.5623 36.4686 30.5387 35.4473C31.0575 34.9049 31.3316 34.1642 31.2892 33.4129C31.2476 32.6625 30.8952 31.9561 30.3201 31.4748L26.2823 28.0986L29.6031 25.3219C30.5403 24.538 31.6628 24.0355 32.8716 23.856L32.9304 23.9205L40.3256 32.0564C39.9912 33.466 39.2122 34.7336 38.1004 35.6627Z" fill="#333333"/>
<path d="M40.4985 26.223C40.4985 27.5722 41.5965 28.6702 42.9457 28.6702C44.2949 28.6702 45.3928 27.5722 45.3928 26.223C45.3928 24.8738 44.2949 23.7759 42.9457 23.7759C41.5965 23.7759 40.4985 24.8738 40.4985 26.223ZM43.7614 26.223C43.7614 26.6733 43.396 27.0387 42.9457 27.0387C42.4954 27.0387 42.13 26.6733 42.13 26.223C42.13 25.7727 42.4954 25.4073 42.9457 25.4073C43.396 25.4073 43.7614 25.7727 43.7614 26.223Z" fill="#333333"/>
<path d="M9.50171 26.223C9.50171 24.8738 8.40375 23.7759 7.05456 23.7759C5.70537 23.7759 4.60742 24.8738 4.60742 26.223C4.60742 27.5722 5.70537 28.6702 7.05456 28.6702C8.40375 28.6702 9.50171 27.5722 9.50171 26.223ZM6.23885 26.223C6.23885 25.7727 6.60429 25.4073 7.05456 25.4073C7.50484 25.4073 7.87028 25.7727 7.87028 26.223C7.87028 26.6733 7.50484 27.0387 7.05456 27.0387C6.60429 27.0387 6.23885 26.6733 6.23885 26.223Z" fill="#333333"/>
<path d="M25.816 0.120117H24.1846V3.38297H25.816V0.120117Z" fill="#333333"/>
<path d="M19.8074 4.99345L21.2202 4.17773L19.5888 1.35219L18.176 2.1679L19.8074 4.99345Z" fill="#333333"/>
<path d="M16.821 8.57346L17.6367 7.16064L14.8112 5.52927L13.9955 6.94208L16.821 8.57346Z" fill="#333333"/>
<path d="M16.027 11.54H12.7642V13.1715H16.027V11.54Z" fill="#333333"/>
<path d="M37.2355 11.54H33.9727V13.1715H37.2355V11.54Z" fill="#333333"/>
<path d="M33.1794 8.57446L36.0054 6.94336L35.1898 5.53038L32.3638 7.16148L33.1794 8.57446Z" fill="#333333"/>
<path d="M30.1921 4.99637L31.8232 2.17041L30.4103 1.35486L28.7792 4.18082L30.1921 4.99637Z" fill="#333333"/>
</svg>
