<svg width="50" height="50" viewBox="0 0 50 50" fill="none" xmlns="http://www.w3.org/2000/svg">
<path d="M14.5162 35.4837V33.0643H15.3228C17.5461 33.0643 19.3551 31.2554 19.3551 29.032C19.3551 26.8086 17.5463 24.9996 15.3228 24.9996H12.097C10.7631 24.9996 9.67753 23.9142 9.67753 22.5802C9.67753 21.2462 10.7629 20.1609 12.097 20.1609H15.3228C16.6566 20.1609 17.7422 21.2463 17.7422 22.5802V23.3867H19.3551V22.5802C19.3551 20.3569 17.5463 18.548 15.3228 18.548H14.5162V16.1289H12.9033V18.5483H12.0968C9.87348 18.5483 8.06445 20.3572 8.06445 22.5805C8.06445 24.8038 9.87331 26.6129 12.0968 26.6129H15.3226C16.6565 26.6129 17.742 27.6983 17.742 29.0323C17.742 30.3663 16.6566 31.4517 15.3226 31.4517H12.0968C10.7629 31.4517 9.67736 30.3663 9.67736 29.0323V28.2258H8.06445V29.0323C8.06445 31.2556 9.87331 33.0646 12.0968 33.0646H12.9033V35.4841H14.5162V35.4837Z" fill="#333333"/>
<path d="M50 23.3872V17.7421H47.5806V15.3227H49.1935V9.67742H31.4517V13.7098H29.8388V19.3548H32.2581V21.7743H30.6452V27.4194H32.2581V29.8388H29.0323V35.484H30.6452V37.9035H18.2976C23.6041 36.01 27.4194 30.9486 27.4194 25.0003C27.4194 20.581 25.2814 16.468 21.7507 13.9068C22.2555 13.4632 22.5805 12.8205 22.5805 12.097C22.5805 10.885 21.6821 9.88731 20.5175 9.71389C21.845 8.13643 22.5805 6.14933 22.5805 4.03252V2.41961C22.5806 1.08559 21.4952 0 20.1614 0C18.8275 0 17.7419 1.08542 17.7419 2.41944C17.7419 2.86469 17.3806 3.22598 16.9354 3.22598C16.4902 3.22598 16.1289 2.86469 16.1289 2.41944C16.129 1.08559 15.0436 0 13.7098 0C12.3759 0 11.2903 1.08559 11.2903 2.41944C11.2903 2.86469 10.929 3.22598 10.4838 3.22598C10.0385 3.22598 9.67725 2.86469 9.67725 2.41944C9.67742 1.08559 8.592 0 7.25815 0C5.9243 0 4.83871 1.08559 4.83871 2.41944V4.03234C4.83871 6.14847 5.57419 8.13643 6.90168 9.71372C5.73712 9.88714 4.83871 10.8846 4.83871 12.0969C4.83871 12.8203 5.1637 13.4631 5.66847 13.9066C2.13798 16.4678 0 20.5806 0 25.0001C0 30.9485 3.8154 36.0098 9.12172 37.9033H0V44.0855C0 47.3468 2.65325 50 5.91449 50H44.0855C47.3468 50 50 47.3468 50 44.0855V37.9033H48.3871V33.871H46.7742V31.4515H50V25.8065H48.3871V23.387H50V23.3872ZM6.45161 2.41944C6.45161 1.97419 6.8129 1.6129 7.25815 1.6129C7.7034 1.6129 8.06469 1.97419 8.06469 2.41944C8.06469 3.75329 9.15011 4.83888 10.4841 4.83888C11.8182 4.83888 12.9032 3.75329 12.9032 2.41944C12.9032 1.97419 13.2645 1.6129 13.7098 1.6129C14.155 1.6129 14.5163 1.97419 14.5163 2.41944C14.5163 3.75329 15.6017 4.83888 16.9357 4.83888C18.2698 4.83888 19.3548 3.75329 19.3548 2.41944C19.3548 1.97419 19.7161 1.6129 20.1614 1.6129C20.6066 1.6129 20.9679 1.97419 20.9679 2.41944V4.03234C20.9679 6.24602 19.9833 8.28886 18.2574 9.67759H9.16284C7.43621 8.28886 6.4523 6.24619 6.4523 4.03234V2.41944H6.45161ZM7.25815 11.2903H8.61781H18.8026H20.1614C20.6066 11.2903 20.9679 11.6516 20.9679 12.0969C20.9679 12.5421 20.6065 12.9032 20.1614 12.9032H20.1605H7.25884H7.25798C6.8129 12.9032 6.45161 12.5419 6.45161 12.0969C6.45161 11.6518 6.8129 11.2903 7.25815 11.2903ZM1.6129 25.0001C1.6129 20.6742 3.93221 16.6766 7.67897 14.5163H19.7395C23.4863 16.6768 25.8056 20.6744 25.8056 25.0001C25.8056 31.6702 20.379 37.0969 13.7087 37.0969C7.03845 37.0969 1.6129 31.6702 1.6129 25.0001ZM48.3871 19.3548V21.7743H45.9677V19.3548H47.5806H48.3871ZM41.9355 29.8388V27.4194H44.3549V29.8388H41.9355ZM40.3226 37.9033V35.4839H42.742V37.9033H40.3226ZM37.0968 31.4517V33.8711H34.6773V31.4517H37.0968ZM44.3549 19.3548V21.7743H41.9355V19.3548H44.3549ZM39.5162 17.7419V15.3227H41.9357V17.7421H39.5162V17.7419ZM41.1291 13.7098V11.2903H43.5486V13.7098H41.1291ZM39.5162 13.7098H37.0968V11.2903H39.5162V13.7098ZM37.9033 15.3227V17.7421H35.4839V15.3227H37.9033ZM40.3226 19.3548V21.7743H37.9031V19.3548H40.3226ZM38.7097 23.3872V25.8065H36.2902V23.387H38.7097V23.3872ZM40.3226 27.4194V29.8388H37.9031V27.4194H40.3226ZM38.7097 35.4839V37.9033H36.2902V35.4839H38.7097ZM38.7097 33.871V31.4515H41.1291V33.871H38.7097ZM40.3226 25.8065V23.387H42.742V25.8065H40.3226ZM45.9678 17.7419H43.5484V15.3227H45.9678V17.7419ZM47.5807 13.7098H45.1613V11.2903H47.5807V13.7098ZM33.0646 11.2903H35.484V13.7098H33.0646V11.2903ZM31.4517 17.7419V15.3227H33.8711V17.7421H32.2581H31.4517V17.7419ZM33.871 19.3548H36.2904V21.7743H33.871V19.3548ZM32.2581 23.3872H34.6775V25.8065H32.2581V23.3872ZM33.871 27.4194H36.2904V29.8388H33.871V27.4194ZM30.6452 31.4517H32.2581H33.0646V33.8711H30.6452V31.4517ZM32.2581 35.4839H34.6775V37.9033H32.2581V35.4839ZM48.3871 41.9355H37.9031V43.5484H48.3871V44.0855C48.3871 46.4573 46.4573 48.3871 44.0855 48.3871H5.91449C3.54271 48.3871 1.6129 46.4573 1.6129 44.0855V43.5484H35.4839V41.9355H1.6129V39.516H30.6452H48.3871V41.9355ZM46.7742 37.9033H44.3548V35.4839H46.7742V37.9033ZM45.1613 33.871H42.7418V31.4515H45.1613V33.871ZM48.3871 29.8388H46.7742H45.9677V27.4194H48.3871V29.8388ZM46.7742 25.8065H44.3548V23.387H46.7742V25.8065Z" fill="#333333"/>
<path d="M48.387 39.5161H1.61279V41.9356H48.387V39.5161Z" fill="#F9BA48"/>
</svg>
