<svg width="50" height="50" viewBox="0 0 50 50" fill="none" xmlns="http://www.w3.org/2000/svg">
<path d="M0 12.0968V0H8.87097L0 12.0968Z" fill="#F9BA48"/>
<path d="M1.61279 16.129L13.7096 0H20.9676L9.67731 16.129H1.61279Z" fill="#F9BA48"/>
<path d="M40.3228 16.1288L50.0002 3.22559V16.1288H40.3228Z" fill="#F9BA48"/>
<path d="M14.5161 16.129L26.6129 0H33.871L22.5806 16.129H14.5161Z" fill="#F9BA48"/>
<path d="M32.2583 9.67742L39.5164 0H46.7744L39.5164 10.4839H38.7099L32.2583 9.67742Z" fill="#F9BA48"/>
<path d="M50 0H0V16.129H1.6129V50H6.45161V16.129H25.9661L22.6669 45.1613H17.7419V50H48.3871V46.7742V45.1613V16.129H50V0ZM4.83871 48.3871H3.22581V16.129H4.83871V48.3871ZM28.1395 11.2903H37.9903L41.8387 45.1613H24.2903L28.1395 11.2903ZM43.4621 45.1613L40.1629 16.129H43.5484V45.1613H43.4621ZM46.7742 48.3871H19.3548V46.7742H22.4839H43.5484H43.6452H46.7742V48.3871ZM46.7742 45.1613H45.1613V16.129H46.7742V45.1613ZM48.3871 14.5161H43.5484H39.979L39.429 9.67742H26.6992L26.1492 14.5161H6.45161H1.6129V1.6129H48.3871V14.5161Z" fill="#333333"/>
<path d="M25.1411 23.387H40.9879L40.1629 16.1289H25.9661L25.1411 23.387Z" fill="#F9BA48"/>
<path d="M24.1333 32.2578L23.3091 39.5159H42.8204L41.9962 32.2578H24.1333Z" fill="#F9BA48"/>
</svg>
