<svg width="50" height="50" viewBox="0 0 50 50" fill="none" xmlns="http://www.w3.org/2000/svg">
<path d="M34.6775 9.67725H7.2583V45.1609H34.6775V9.67725Z" fill="#F9BA48"/>
<path d="M37.0967 4.83868H30.4967C30.1627 3.90242 29.2757 3.22578 28.2257 3.22578H25.8065V2.41925C25.8065 1.08541 24.721 0 23.387 0H18.5484C17.2145 0 16.1291 1.08541 16.1291 2.41942V3.22596H13.7097C12.6597 3.22596 11.7727 3.9026 11.4387 4.83885H4.83886C3.50502 4.83885 2.41943 5.92426 2.41943 7.25827V47.5806C2.41943 48.9144 3.50485 50 4.83886 50H37.0967C38.4305 50 39.5161 48.9146 39.5161 47.5806V7.2581C39.5161 5.92409 38.4305 4.83868 37.0967 4.83868ZM12.9033 5.64521C12.9033 5.20082 13.2655 4.83868 13.7099 4.83868H17.7422V2.41942C17.7422 1.97504 18.1043 1.61289 18.5487 1.61289H23.3874C23.8318 1.61289 24.1939 1.97504 24.1939 2.41942V4.83885H28.2262C28.6706 4.83885 29.0328 5.201 29.0328 5.64538V8.0648C29.0328 8.50919 28.6706 8.87134 28.2262 8.87134H13.7097C13.2653 8.87134 12.9031 8.50919 12.9031 8.0648V5.64521H12.9033ZM37.9032 47.5804C37.9032 48.0255 37.5411 48.3869 37.0967 48.3869H4.83886C4.39447 48.3869 4.03233 48.0256 4.03233 47.5804V7.2581C4.03233 6.81372 4.39447 6.45157 4.83886 6.45157H11.2904V8.06446C11.2904 9.3983 12.3758 10.4839 13.7099 10.4839H28.2259C29.5597 10.4839 30.6453 9.39847 30.6453 8.06446V6.45157H37.0969C37.5413 6.45157 37.9034 6.81372 37.9034 7.2581V47.5804H37.9032Z" fill="#333333"/>
<path d="M29.839 19.3546H21.7745V17.7417H24.1939V12.0967H17.7424V17.7419H20.1618V19.3548H12.097V22.5806H9.67773V28.2258H16.1293V22.5804H13.7099V20.9675H20.1614V22.5804H17.742V28.2256H24.1936V22.5804H21.7742V20.9675H28.2257V22.5804H25.8067V28.2256H28.2261V29.8385H20.1616V33.0643H17.7422V38.7093H24.1938V33.0641H21.7743V31.4512H29.8388V28.2254H32.2582V22.5804H29.8388V19.3546H29.839ZM19.3551 13.7096H22.5809V16.1288H19.3551V13.7096ZM14.5164 26.6127H11.2906V24.1933H14.5164V26.6127ZM22.5809 26.6127H19.3551V24.1933H22.5809V26.6127ZM22.5809 37.0964H19.3551V34.677H22.5809V37.0964ZM30.6453 26.6127H27.4195V24.1933H30.6453V26.6127Z" fill="#333333"/>
<path d="M45.1611 5.64502C43.8273 5.64502 42.7417 6.73043 42.7417 8.06444V9.67734V11.2902V12.903V14.5158V42.0656L45.1611 49.3237L47.5805 42.0656V14.5158V12.903V11.2901V9.67717V8.06427C47.5805 6.73043 46.495 5.64502 45.1611 5.64502ZM44.6668 42.7416H45.6547L45.1611 44.2239L44.6668 42.7416ZM45.9677 41.1287H44.3548V14.5158H45.9677V41.1287ZM45.9677 12.903H44.3548V11.2901H45.9677V12.903ZM44.3548 9.67717V8.06427C44.3548 7.61989 44.7169 7.25774 45.1613 7.25774C45.6057 7.25774 45.9678 7.61989 45.9678 8.06427V9.67717H44.3548Z" fill="#333333"/>
</svg>
