<svg width="50" height="50" viewBox="0 0 50 50" fill="none" xmlns="http://www.w3.org/2000/svg">
<path d="M47.5806 16.129H39.5161V11.4839C37.9935 10.2613 37.0967 8.41136 37.0967 6.45161C37.0967 2.89428 39.991 0 43.5483 0C47.1056 0 49.9999 2.89428 49.9999 6.45161C49.9999 8.41204 49.1032 10.262 47.5805 11.4839L47.5806 16.129Z" fill="#F9BA48"/>
<path d="M6.45161 12.9032C2.89428 12.9032 0 10.0089 0 6.45161C0 2.89428 2.89428 0 6.45161 0C10.0089 0 12.9032 2.89445 12.9032 6.45161C12.9032 10.0088 10.0089 12.9032 6.45161 12.9032Z" fill="#F9BA48"/>
<path d="M44.3547 12.0967V8.72246C45.291 8.38853 45.9676 7.50147 45.9676 6.45149C45.9676 5.11765 44.8822 4.03223 43.5482 4.03223C42.2143 4.03223 41.1287 5.11765 41.1287 6.45149C41.1287 7.50147 41.8054 8.38853 42.7416 8.72246V12.0967H38.7095V13.7096H48.3869V12.0967H44.3547ZM43.5482 5.64513C43.9926 5.64513 44.3547 6.00642 44.3547 6.45167C44.3547 6.89691 43.9926 7.2582 43.5482 7.2582C43.1038 7.2582 42.7416 6.89691 42.7416 6.45167C42.7418 6.00642 43.104 5.64513 43.5482 5.64513Z" fill="#333333"/>
<path d="M38.7371 35.4411L34.2 34.6524L30.6927 32.0121C32.5628 30.6435 33.9734 28.7596 34.7629 26.6032C36.7242 26.5508 38.3065 24.771 38.3065 22.5807C38.3065 21.3936 37.8339 20.3355 37.0969 19.5976V18.5485C37.0969 11.8784 31.6703 6.45166 25 6.45166C18.3297 6.45166 12.9031 11.8781 12.9031 18.5483V20.0773C12.4063 20.7677 12.0966 21.6305 12.0966 22.5805C12.0966 24.6111 13.4595 26.2798 15.22 26.5563C15.9966 28.7047 17.3878 30.5845 19.2362 31.9579L15.791 34.6538L11.2629 35.4418C7.97651 36.0135 5.3298 38.595 4.67569 41.8652L3.04834 49.9999H20.4049H24.3008H25.6983H29.5942H46.9515L45.3241 41.8643C44.6702 38.5943 42.0226 36.0128 38.7371 35.4411ZM25.0693 48.387H24.9307L21.1073 33.0951C21.3129 33.1951 21.5187 33.2943 21.7307 33.3829C22.7701 33.816 23.8846 34.032 25 34.032C26.1145 34.032 27.2307 33.8151 28.2685 33.3821C28.4813 33.2933 28.6871 33.1942 28.8918 33.0942L25.0693 48.387ZM35.2452 24.8902C35.3976 24.1322 35.484 23.3539 35.484 22.5595V20.3668C36.1945 20.741 36.6936 21.5918 36.6936 22.5814C36.6936 23.6766 36.0791 24.5934 35.2452 24.8902ZM25 8.06439C30.7806 8.06439 35.484 12.7677 35.484 18.5483H34.6774C31.4177 18.5483 29.7315 16.5169 29.6637 16.4338L29.2863 15.9596L28.7258 16.1895C28.6676 16.2129 22.8983 18.5483 15.3226 18.5483H14.516C14.516 12.7677 19.2194 8.06439 25 8.06439ZM13.7097 22.5805C13.7097 21.7934 14.0298 21.0991 14.5162 20.6571V22.5587C14.5162 23.2732 14.588 23.9741 14.7113 24.6586C14.1152 24.2387 13.7097 23.4693 13.7097 22.5805ZM16.1289 22.5595V20.1532C22.4023 20.0257 27.2581 18.4499 28.8169 17.8813C29.5516 18.5853 31.246 19.8958 33.8711 20.1265V22.5595C33.8711 26.6547 31.4284 30.3183 27.6484 31.8942C25.9653 32.595 24.0355 32.595 22.3524 31.8942C18.5718 30.3185 16.1289 26.6547 16.1289 22.5595ZM5.016 48.387L6.25711 42.1814C6.78133 39.5588 8.90468 37.4894 11.5393 37.0306L15.0112 36.4265L14.2304 39.2418L16.2353 39.8813L14.2554 41.8612L19.186 48.387H5.016ZM16.3894 42.0095L19.2483 39.1507L16.1998 38.1772L16.836 35.8853L19.6021 33.72L23.2682 48.387H21.2077L16.3894 42.0095ZM26.7314 48.387L30.3798 33.7958L33.166 35.8934L33.7998 38.1772L30.7514 39.1507L33.6102 42.0095L28.7925 48.387H26.7314ZM30.8137 48.387L35.7443 41.8612L33.7644 39.8813L35.7692 39.2418L34.9885 36.4265L38.4603 37.0306C41.0958 37.4887 43.2183 39.5588 43.7425 42.1814L44.9837 48.387H30.8137Z" fill="#333333"/>
<path d="M44.3551 17.7417H42.7422V32.2578H44.3551V17.7417Z" fill="#333333"/>
<path d="M44.3551 33.8711H42.7422V35.484H44.3551V33.8711Z" fill="#333333"/>
<path d="M47.5807 17.7417H45.9678V28.2257H47.5807V17.7417Z" fill="#333333"/>
<path d="M47.5807 29.8389H45.9678V33.0647H47.5807V29.8389Z" fill="#333333"/>
<path d="M41.129 17.7417H39.5161V25.8062H41.129V17.7417Z" fill="#333333"/>
<path d="M41.129 27.4194H39.5161V29.8389H41.129V27.4194Z" fill="#333333"/>
<path d="M7.25793 8.87116H5.64503C5.20064 8.87116 4.83849 8.50987 4.83849 8.06462H3.22559C3.22559 9.39847 4.31101 10.4841 5.64503 10.4841V12.097H7.25793V10.4841C8.59178 10.4841 9.67737 9.39864 9.67737 8.06462C9.67737 6.7306 8.59195 5.64518 7.25793 5.64518H5.64503C5.20064 5.64518 4.83849 5.28389 4.83849 4.83881C4.83849 4.39374 5.20064 4.03228 5.64503 4.03228H7.25793C7.70232 4.03228 8.06447 4.39357 8.06447 4.83881H9.67737C9.67737 3.50496 8.59195 2.41937 7.25793 2.41937V0.806641H5.64503V2.41954C4.31118 2.41954 3.22559 3.50496 3.22559 4.83898C3.22559 6.17301 4.31101 7.25825 5.64503 7.25825H7.25793C7.70232 7.25825 8.06447 7.61954 8.06447 8.06479C8.0643 8.50987 7.70215 8.87116 7.25793 8.87116Z" fill="#333333"/>
<path d="M7.25792 14.5161H5.64502V29.0322H7.25792V14.5161Z" fill="#333333"/>
<path d="M7.25792 30.645H5.64502V32.2579H7.25792V30.645Z" fill="#333333"/>
<path d="M10.484 13.71H8.87109V21.7745H10.484V13.71Z" fill="#333333"/>
<path d="M10.484 23.3872H8.87109V26.613H10.484V23.3872Z" fill="#333333"/>
<path d="M4.03234 13.71H2.41943V23.3874H4.03234V13.71Z" fill="#333333"/>
<path d="M4.03234 25H2.41943V27.4194H4.03234V25Z" fill="#333333"/>
</svg>
