<svg width="31" height="30" viewBox="0 0 31 30" fill="none" xmlns="http://www.w3.org/2000/svg">
<path d="M10.8662 5.01102C11.2493 4.73012 11.2383 4.75152 13.9321 3.22792C13.938 3.22498 13.9433 3.22145 13.9492 3.21851C12.5364 1.23082 10.2301 0.00857544 7.72976 0.00857544C3.52334 0.00857544 0.100586 3.43133 0.100586 7.63775V29.6975C0.100586 29.8598 0.232276 29.9915 0.394536 29.9915H3.33404C3.4963 29.9915 3.62799 29.8598 3.62799 29.6975V7.63775C3.62799 5.3667 5.4834 3.52069 7.75798 3.53597C8.97729 3.54421 10.1019 4.10506 10.8662 5.01102Z" fill="white"/>
<path d="M16.6925 20.679C17.1729 20.5989 17.4974 20.1445 17.4174 19.6641L17.2811 18.8473C17.2011 18.3669 16.7467 18.0424 16.2663 18.1224C15.7859 18.2026 15.4614 18.657 15.5414 19.1373L15.6777 19.9542C15.7577 20.4345 16.212 20.7591 16.6925 20.679Z" fill="white"/>
<path d="M21.1646 18.2288C21.5893 17.9905 21.7404 17.4529 21.502 17.0282L21.1207 16.3489C20.8824 15.9242 20.3448 15.7731 19.9201 16.0115C19.4954 16.2498 19.3443 16.7874 19.5827 17.2121L19.964 17.8914C20.2026 18.3166 20.7404 18.4669 21.1646 18.2288Z" fill="white"/>
<path d="M25.5862 15.6873C25.9048 15.319 25.8646 14.7621 25.4962 14.4434L24.87 13.9016C24.5016 13.5831 23.9448 13.6233 23.6261 13.9916C23.3074 14.3599 23.3477 14.9168 23.716 15.2355L24.3423 15.7773C24.7108 16.0959 25.2676 16.0556 25.5862 15.6873Z" fill="white"/>
<path d="M17.6579 24.0808C17.5877 23.5989 17.1401 23.2653 16.6581 23.3353C16.1762 23.4056 15.8424 23.8532 15.9127 24.3352L16.0361 25.1822C16.1065 25.6647 16.5546 25.9979 17.036 25.9277C17.5179 25.8574 17.8517 25.4098 17.7814 24.9279L17.6579 24.0808Z" fill="white"/>
<path d="M21.5288 21.6748C21.3462 21.2233 20.8322 21.0052 20.3807 21.1877C19.9292 21.3702 19.7111 21.8842 19.8936 22.3357L20.1955 23.0826C20.3781 23.5343 20.8922 23.7522 21.3435 23.5697C21.7951 23.3873 22.0131 22.8732 21.8307 22.4217L21.5288 21.6748Z" fill="white"/>
<path d="M25.3438 19.2768C25.0534 18.8858 24.5011 18.8042 24.1101 19.0945C23.7191 19.3849 23.6375 19.9372 23.9278 20.3282L24.4081 20.975C24.6984 21.3661 25.2509 21.4475 25.6418 21.1572C26.0328 20.8669 26.1144 20.3145 25.824 19.9235L25.3438 19.2768Z" fill="white"/>
<path d="M29.7815 17.4678L29.1228 16.9212C28.748 16.6101 28.1921 16.6618 27.881 17.0366C27.57 17.4114 27.6217 17.9673 27.9964 18.2784L28.6551 18.825C29.0299 19.1361 29.5859 19.0844 29.8969 18.7096C30.208 18.3348 30.1562 17.7789 29.7815 17.4678Z" fill="white"/>
<path d="M11.0213 12.4115L20.8398 6.85765L20.5594 6.36147C19.415 4.33668 16.8432 3.60745 14.7991 4.76297C12.1486 6.26176 12.1064 6.26288 11.7379 6.56488C10.2089 7.81382 9.69104 10.0615 10.7403 11.9148L11.0213 12.4115Z" fill="white"/>
<path d="M24.3596 8.8224L23.9704 8.13456C23.7295 7.70651 23.1839 7.55866 22.7605 7.79828C22.2507 8.086 11.0791 14.4049 10.842 14.5391C10.4198 14.7772 10.2638 15.3194 10.5063 15.749L10.8955 16.4375C11.2207 17.0124 11.9492 17.2144 12.5246 16.8895L23.9075 10.4515C24.4818 10.1261 24.6853 9.39807 24.3596 8.8224Z" fill="white"/>
</svg>
