<svg width="30" height="30" viewBox="0 0 30 30" fill="none" xmlns="http://www.w3.org/2000/svg">
<g clip-path="url(#clip0)">
<path d="M3.12496 11.875H6.24994C6.05746 11.875 5.87617 11.7862 5.75746 11.635C5.63869 11.4838 5.59744 11.2862 5.64373 11.0987L6.0325 9.54501C6.24127 8.70876 6.98998 8.12499 7.85125 8.12499H11.875C12.9088 8.12499 13.75 8.96622 13.75 9.99999V11.25C13.75 11.595 13.47 11.875 13.125 11.875H16.875C16.53 11.875 16.25 11.595 16.25 11.25V9.99999C16.25 8.96622 17.0912 8.12499 18.125 8.12499H22.1487C23.01 8.12499 23.7587 8.70876 23.9675 9.54501L24.3562 11.0987C24.4037 11.285 24.3612 11.4838 24.2425 11.635C24.1237 11.7862 23.9425 11.875 23.75 11.875H26.875C27.22 11.875 27.5 11.595 27.5 11.25V7.49997C27.5 5.7775 26.0975 4.375 24.375 4.375H5.62498C3.9025 4.375 2.5 5.7775 2.5 7.49997V11.25C2.5 11.595 2.77996 11.875 3.12496 11.875Z" fill="white"/>
<path d="M26.875 13.125H3.12498C1.4025 13.125 0 14.5275 0 16.25V25C0 25.345 0.28002 25.625 0.62502 25.625C0.97002 25.625 1.25004 25.345 1.25004 25V23.125H28.75V25C28.75 25.345 29.03 25.625 29.375 25.625C29.72 25.625 30.0001 25.345 30.0001 25V16.25C30 14.5275 28.5975 13.125 26.875 13.125ZM28.75 21.875H1.24998V20.625H28.75V21.875H28.75Z" fill="white"/>
</g>
<defs>
<clipPath id="clip0">
<rect width="30" height="30" fill="white"/>
</clipPath>
</defs>
</svg>
